<svg width="240" height="240" viewBox="0 0 240 240" fill="none" xmlns="http://www.w3.org/2000/svg">
<rect width="240" height="240" rx="20" fill="#FAB44D" fill-opacity="0.3"/>
<path d="M207.455 78.7566H162.365V161.008H207.455V78.7566Z" fill="#BBCBC2"/>
<path d="M166.576 156.797H203.243V82.9683H166.576V156.797Z" fill="white"/>
<path d="M178.446 98.8176H170.49V106.773H178.446V98.8176Z" fill="#BBCBC2"/>
<path d="M178.446 115.912H170.49V123.868H178.446V115.912Z" fill="#BBCBC2"/>
<path d="M178.446 133.007H170.49V140.962H178.446V133.007Z" fill="#BBCBC2"/>
<path d="M81.5995 78.7566H36.5098V161.008H81.5995V78.7566Z" fill="#BBCBC2"/>
<path d="M40.7207 156.797H77.3871V82.9683H40.7207V156.797Z" fill="white"/>
<path d="M65.5189 98.8027H54.8105V99.7972H65.5189V98.8027Z" fill="#BBCBC2"/>
<path d="M73.4744 102.243H54.8105V103.237H73.4744V102.243Z" fill="#BBCBC2"/>
<path d="M73.4561 105.683H54.8105V106.677H73.4561V105.683Z" fill="#BBCBC2"/>
<path d="M65.5189 115.897H54.8105V116.892H65.5189V115.897Z" fill="#BBCBC2"/>
<path d="M73.4744 119.337H54.8105V120.332H73.4744V119.337Z" fill="#BBCBC2"/>
<path d="M73.4561 122.777H54.8105V123.772H73.4561V122.777Z" fill="#BBCBC2"/>
<path d="M65.5189 132.992H54.8105V133.986H65.5189V132.992Z" fill="#BBCBC2"/>
<path d="M73.4744 136.432H54.8105V137.426H73.4744V136.432Z" fill="#BBCBC2"/>
<path d="M73.4561 139.872H54.8105V140.866H73.4561V139.872Z" fill="#BBCBC2"/>
<path d="M120 167.697C180.751 167.697 230 165.701 230 163.238C230 160.775 180.751 158.779 120 158.779C59.2487 158.779 10 160.775 10 163.238C10 165.701 59.2487 167.697 120 167.697Z" fill="#BBCBC2"/>
<path d="M152.676 52H91.2891V163.981H152.676V52Z" fill="#3F3D56"/>
<path d="M93.9414 161.132H150.023V54.8491H93.9414V161.132Z" fill="white"/>
<path d="M130.782 79.292H116.203V80.6459H130.782V79.292Z" fill="#254C50"/>
<path d="M141.613 83.9753H116.203V85.3292H141.613V83.9753Z" fill="#BBCBC2"/>
<path d="M141.588 88.6587H116.203V90.0126H141.588V88.6587Z" fill="#BBCBC2"/>
<path d="M113.182 79.312H102.352V90.1429H113.182V79.312Z" fill="#254C50"/>
<path d="M130.782 102.565H116.203V103.919H130.782V102.565Z" fill="#254C50"/>
<path d="M141.613 107.249H116.203V108.602H141.613V107.249Z" fill="#BBCBC2"/>
<path d="M141.588 111.932H116.203V113.286H141.588V111.932Z" fill="#BBCBC2"/>
<path d="M113.182 102.585H102.352V113.416H113.182V102.585Z" fill="#254C50"/>
<path d="M130.782 125.838H116.203V127.192H130.782V125.838Z" fill="#254C50"/>
<path d="M141.613 130.522H116.203V131.876H141.613V130.522Z" fill="#BBCBC2"/>
<path d="M141.588 135.205H116.203V136.559H141.588V135.205Z" fill="#BBCBC2"/>
<path d="M113.182 125.858H102.352V136.689H113.182V125.858Z" fill="#254C50"/>
<path d="M99.562 131.402L98.8187 134.623C98.8187 134.623 99.0665 142.056 97.0845 141.312C95.1025 140.569 95.598 134.128 95.598 134.128L97.3322 130.907L99.562 131.402Z" fill="#FFB8B8"/>
<path d="M88.537 96.0988C91.2735 96.0988 93.4919 93.8804 93.4919 91.1439C93.4919 88.4074 91.2735 86.189 88.537 86.189C85.8004 86.189 83.582 88.4074 83.582 91.1439C83.582 93.8804 85.8004 96.0988 88.537 96.0988Z" fill="#FFB8B8"/>
<path d="M84.6967 92.5063L84.2012 99.691L90.3948 100.434C90.3948 100.434 90.3948 94.4883 90.8903 93.7451C91.3858 93.0018 84.6967 92.5063 84.6967 92.5063Z" fill="#FFB8B8"/>
<path d="M98.4474 101.797L90.4247 98.3996C90.4247 98.3996 86.5923 95.4424 84.3442 97.6287L83.3349 99.0718C83.3349 99.0718 74.416 102.54 74.416 105.265L77.8845 118.891C77.8845 118.891 75.9025 126.572 78.8754 127.067L94.9789 128.554C94.9789 128.554 97.2086 125.828 95.2267 122.36L95.9699 114.184L98.4474 101.797Z" fill="#575A89"/>
<path d="M92.9961 102.045L98.4465 101.797C98.4465 101.797 100.181 102.292 101.419 107C102.658 111.707 102.906 119.387 102.906 119.387L99.933 133.261L96.2168 132.765L97.7033 119.387L95.2258 110.468L92.9961 102.045Z" fill="#575A89"/>
<path d="M77.3873 103.531L74.7001 104.368C74.7001 104.368 72.4324 107.743 72.4324 109.477C72.4324 111.211 71.4414 124.342 71.4414 124.342L77.8828 134.995L79.8648 129.792L75.9008 123.103L79.1215 114.928L77.3873 103.531Z" fill="#575A89"/>
<path d="M95.7228 128.058L77.9106 126.491C77.9106 126.491 76.1508 137.72 76.3986 142.179C76.6463 146.639 76.8941 153.576 76.8941 153.576L74.9121 183.801L82.5922 182.81L83.5832 157.787L86.8039 144.161L90.5201 161.504L92.9976 183.801L99.6867 183.058L97.457 156.053C97.457 156.053 99.439 131.774 95.7228 128.058Z" fill="#2F2E41"/>
<path d="M98.1991 181.819L100.429 182.562C100.429 182.562 105.136 181.323 103.897 184.544C102.658 187.765 99.19 187.269 99.19 187.269C99.19 187.269 94.9784 190.49 93.2441 188.012L94.2351 182.81L98.1991 181.819Z" fill="#2F2E41"/>
<path d="M80.1131 181.819L82.3428 182.562C82.3428 182.562 87.05 181.323 85.8113 184.544C84.5725 187.765 81.1041 187.269 81.1041 187.269C81.1041 187.269 76.8924 190.49 75.1582 188.012L76.1492 182.81L80.1131 181.819Z" fill="#2F2E41"/>
<path d="M84.6969 95.4794C84.6969 95.4794 79.4942 91.7632 82.2194 87.3037C84.11 84.21 88.0276 84.4549 90.2498 84.8951C90.8485 85.0056 91.4114 85.26 91.8899 85.6365C92.3683 86.013 92.7481 86.5001 92.9964 87.056C93.368 87.9231 93.368 88.7902 91.8815 88.7902C88.9085 88.7902 90.395 91.0199 90.395 91.0199C90.395 91.0199 88.4131 91.5154 88.9085 93.2496C89.404 94.9839 84.6969 95.4794 84.6969 95.4794Z" fill="#2F2E41"/>
</svg>
