<svg width="380" height="267" viewBox="0 0 380 267" fill="none" xmlns="http://www.w3.org/2000/svg">
<path d="M228.754 266.335H0V1.63403L228.754 72.7111V266.335Z" fill="#F2F2F2"/>
<path d="M201.03 172.791H21.2949V256.531H201.03V172.791Z" fill="#3F3D56"/>
<path d="M162.105 157.125C175.909 157.125 187.099 145.935 187.099 132.131C187.099 118.327 175.909 107.137 162.105 107.137C148.301 107.137 137.111 118.327 137.111 132.131C137.111 145.935 148.301 157.125 162.105 157.125Z" fill="#1C3F43"/>
<path d="M161.877 177.331L162.082 131.993" stroke="#3F3D56" stroke-width="2" stroke-miterlimit="10"/>
<path d="M162.083 138.405C165.624 138.405 168.495 135.534 168.495 131.993C168.495 128.452 165.624 125.582 162.083 125.582C158.542 125.582 155.672 128.452 155.672 131.993C155.672 135.534 158.542 138.405 162.083 138.405Z" fill="#3F3D56"/>
<path d="M161.957 159.936C161.957 159.936 161.13 140.232 142.344 142.437L161.957 159.936Z" fill="#3F3D56"/>
<path d="M57.4019 106.945C71.2055 106.945 82.3956 95.7548 82.3956 81.9512C82.3956 68.1476 71.2055 56.9575 57.4019 56.9575C43.5983 56.9575 32.4082 68.1476 32.4082 81.9512C32.4082 95.7548 43.5983 106.945 57.4019 106.945Z" fill="#1C3F43"/>
<path d="M55.9863 174.221L57.4248 81.9236" stroke="#3F3D56" stroke-width="2" stroke-miterlimit="10"/>
<path d="M57.425 88.335C60.9659 88.335 63.8364 85.4645 63.8364 81.9236C63.8364 78.3827 60.9659 75.5122 57.425 75.5122C53.8841 75.5122 51.0137 78.3827 51.0137 81.9236C51.0137 85.4645 53.8841 88.335 57.425 88.335Z" fill="#3F3D56"/>
<path d="M57.018 108.031C57.018 108.031 56.4092 88.32 37.5996 90.3169L57.018 108.031Z" fill="#3F3D56"/>
<path d="M56.0142 172.459C56.0142 172.459 60.7256 134.646 36.9434 132.444" stroke="#3F3D56" stroke-width="2" stroke-miterlimit="10"/>
<path d="M36.9446 138.855C40.4855 138.855 43.3559 135.984 43.3559 132.444C43.3559 128.903 40.4855 126.032 36.9446 126.032C33.4037 126.032 30.5332 128.903 30.5332 132.444C30.5332 135.984 33.4037 138.855 36.9446 138.855Z" fill="#3F3D56"/>
<path d="M111.15 51.4578C124.954 51.4578 136.144 40.2678 136.144 26.4641C136.144 12.6605 124.954 1.47046 111.15 1.47046C97.3463 1.47046 86.1562 12.6605 86.1562 26.4641C86.1562 40.2678 97.3463 51.4578 111.15 51.4578Z" fill="#1C3F43"/>
<path d="M111.166 177.781V26.5559" stroke="#3F3D56" stroke-width="2" stroke-miterlimit="10"/>
<path d="M111.167 32.8955C114.708 32.8955 117.579 30.025 117.579 26.4841C117.579 22.9432 114.708 20.0728 111.167 20.0728C107.626 20.0728 104.756 22.9432 104.756 26.4841C104.756 30.025 107.626 32.8955 111.167 32.8955Z" fill="#3F3D56"/>
<path d="M91.4739 142.308C95.0148 142.308 97.8852 139.437 97.8852 135.896C97.8852 132.355 95.0148 129.485 91.4739 129.485C87.933 129.485 85.0625 132.355 85.0625 135.896C85.0625 139.437 87.933 142.308 91.4739 142.308Z" fill="#3F3D56"/>
<path d="M111.167 59.2339C111.167 59.2339 110.251 39.5346 91.4746 41.8244L111.167 59.2339Z" fill="#3F3D56"/>
<path d="M111.167 115.079C111.167 115.079 110.251 95.3798 91.4746 97.6696L111.167 115.079Z" fill="#3F3D56"/>
<path d="M111.167 176.018C111.167 176.018 115.288 137.728 91.4746 135.896" stroke="#3F3D56" stroke-width="2" stroke-miterlimit="10"/>
<path d="M131.251 82.1665C134.792 82.1665 137.663 79.296 137.663 75.7551C137.663 72.2142 134.792 69.3438 131.251 69.3438C127.71 69.3438 124.84 72.2142 124.84 75.7551C124.84 79.296 127.71 82.1665 131.251 82.1665Z" fill="#3F3D56"/>
<path d="M111.56 113.835C111.56 113.835 107.438 77.5869 131.252 75.7551" stroke="#3F3D56" stroke-width="2" stroke-miterlimit="10"/>
<path d="M164.622 61.2733C162.844 61.2733 161.107 60.7462 159.629 59.7588C158.151 58.7713 156.999 57.3678 156.319 55.7256C155.639 54.0835 155.461 52.2766 155.807 50.5333C156.154 48.7901 157.01 47.1888 158.267 45.932C159.524 44.6751 161.125 43.8192 162.868 43.4725C164.612 43.1257 166.418 43.3037 168.061 43.9839C169.703 44.6641 171.106 45.8159 172.094 47.2938C173.081 48.7716 173.608 50.5091 173.608 52.2866C173.606 54.6692 172.658 56.9534 170.973 58.6382C169.288 60.3229 167.004 61.2706 164.622 61.2733ZM164.622 44.1168C163.006 44.1168 161.426 44.5959 160.083 45.4936C158.739 46.3913 157.692 47.6673 157.074 49.1601C156.455 50.6529 156.293 52.2956 156.609 53.8804C156.924 55.4652 157.702 56.9209 158.845 58.0635C159.987 59.206 161.443 59.9841 163.028 60.2993C164.612 60.6146 166.255 60.4528 167.748 59.8344C169.241 59.2161 170.517 58.169 171.414 56.8254C172.312 55.4819 172.791 53.9024 172.791 52.2866C172.789 50.1206 171.927 48.044 170.396 46.5124C168.864 44.9808 166.788 44.1193 164.622 44.1168Z" fill="#3F3D56"/>
<path d="M23.2836 17.9735C21.5062 17.9735 19.7687 17.4464 18.2909 16.459C16.813 15.4715 15.6611 14.0679 14.981 12.4258C14.3008 10.7837 14.1228 8.97678 14.4696 7.23352C14.8163 5.49027 15.6722 3.88898 16.929 2.63216C18.1859 1.37534 19.7871 0.519437 21.5304 0.172682C23.2737 -0.174074 25.0806 0.00389497 26.7227 0.684081C28.3648 1.36427 29.7684 2.51612 30.7558 3.99398C31.7433 5.47185 32.2704 7.20934 32.2704 8.98675C32.2677 11.3694 31.32 13.6536 29.6353 15.3384C27.9505 17.0231 25.6662 17.9708 23.2836 17.9735ZM23.2836 0.816982C21.6678 0.816982 20.0883 1.29613 18.7448 2.19384C17.4012 3.09154 16.3541 4.36749 15.7357 5.86032C15.1174 7.35315 14.9556 8.99582 15.2708 10.5806C15.5861 12.1654 16.3642 13.6211 17.5067 14.7637C18.6493 15.9062 20.105 16.6843 21.6898 16.9995C23.2746 17.3148 24.9172 17.153 26.4101 16.5346C27.9029 15.9163 29.1788 14.8691 30.0765 13.5256C30.9743 12.1821 31.4534 10.6026 31.4534 8.98675C31.4509 6.82076 30.5894 4.74418 29.0578 3.21259C27.5262 1.681 25.4496 0.819459 23.2836 0.816982Z" fill="#3F3D56"/>
<path d="M228.754 151.141C226.977 151.141 225.239 150.614 223.762 149.626C222.284 148.639 221.132 147.235 220.452 145.593C219.771 143.951 219.594 142.144 219.94 140.401C220.287 138.657 221.143 137.056 222.4 135.799C223.657 134.543 225.258 133.687 227.001 133.34C228.744 132.993 230.551 133.171 232.193 133.851C233.836 134.532 235.239 135.683 236.227 137.161C237.214 138.639 237.741 140.377 237.741 142.154C237.738 144.537 236.791 146.821 235.106 148.506C233.421 150.19 231.137 151.138 228.754 151.141ZM228.754 133.984C227.139 133.984 225.559 134.463 224.215 135.361C222.872 136.259 221.825 137.535 221.206 139.028C220.588 140.52 220.426 142.163 220.742 143.748C221.057 145.333 221.835 146.788 222.977 147.931C224.12 149.073 225.576 149.852 227.16 150.167C228.745 150.482 230.388 150.32 231.881 149.702C233.374 149.084 234.65 148.036 235.547 146.693C236.445 145.349 236.924 143.77 236.924 142.154C236.922 139.988 236.06 137.911 234.528 136.38C232.997 134.848 230.92 133.987 228.754 133.984Z" fill="#3F3D56"/>
<path d="M190.763 80.8807C193.696 80.8807 196.074 78.5032 196.074 75.5704C196.074 72.6375 193.696 70.26 190.763 70.26C187.831 70.26 185.453 72.6375 185.453 75.5704C185.453 78.5032 187.831 80.8807 190.763 80.8807Z" fill="#3F3D56"/>
<path d="M232.429 177.692C235.362 177.692 237.74 175.315 237.74 172.382C237.74 169.449 235.362 167.072 232.429 167.072C229.497 167.072 227.119 169.449 227.119 172.382C227.119 175.315 229.497 177.692 232.429 177.692Z" fill="#3F3D56"/>
<path d="M228.754 266.335V172.791H190.764C190.764 216.558 155.284 252.038 111.517 252.038C67.7506 252.038 32.2706 216.558 32.2706 172.791H0V266.335H228.754Z" fill="#3F3D56"/>
<path d="M111.518 252.038C155.285 252.038 190.765 216.558 190.765 172.791H32.2715C32.2715 216.558 67.7515 252.038 111.518 252.038Z" fill="#1C3F43"/>
<path d="M336.506 206.106C375.561 186.351 391.206 138.676 371.451 99.6211L230.021 171.161C249.777 210.215 297.451 225.861 336.506 206.106Z" fill="#3F3D56"/>
<path d="M339.372 58.6194C339.635 58.4407 339.889 58.2498 340.136 58.0503C339.621 59.5933 338.791 61.0123 337.697 62.217C337.442 62.4987 337.169 62.7623 336.888 63.0173C336.883 62.9527 336.876 62.8881 336.873 62.8235C336.84 62.1986 336.886 61.541 336.894 60.8974C337.868 60.3171 338.712 59.5415 339.372 58.6194Z" fill="url(#paint0_linear)"/>
<path d="M343.203 35.8288C343.797 34.8268 344.14 33.6957 344.202 32.5323C344.264 31.3689 344.042 30.2078 343.557 29.1486C343.072 28.0893 342.338 27.1633 341.417 26.45C340.495 25.7367 339.415 25.2572 338.268 25.0527C337.121 24.8481 335.942 24.9246 334.831 25.2755C333.72 25.6264 332.711 26.2414 331.889 27.0677C331.068 27.894 330.459 28.907 330.115 30.0201C329.771 31.1331 329.701 32.313 329.913 33.4587C327.851 34.4404 326.126 36.0097 324.955 37.9692C323.783 39.9288 323.217 42.1911 323.328 44.4715C322.343 45.9831 321.725 47.7038 321.522 49.4965C321.32 51.2892 321.539 53.1044 322.161 54.7976C322.784 56.4909 323.793 58.0154 325.109 59.2498C326.425 60.4842 328.01 61.3944 329.74 61.908C331.469 62.4216 333.295 62.5243 335.071 62.208C336.847 61.8917 338.525 61.1652 339.971 60.0862C341.417 59.0072 342.591 57.6056 343.399 55.9929C344.208 54.3802 344.629 52.601 344.629 50.7969C344.629 50.6121 344.624 50.4286 344.615 50.2459C346.053 48.0399 346.696 45.41 346.439 42.7895C346.182 40.169 345.041 37.714 343.203 35.8288Z" fill="#2F2E41"/>
<g opacity="0.1">
<path opacity="0.1" d="M329.818 31.6286C329.851 31.6128 329.882 31.5946 329.914 31.5791C329.891 31.4543 329.875 31.3274 329.859 31.2007C329.855 31.2272 329.85 31.2531 329.847 31.2797C329.833 31.3966 329.827 31.5124 329.818 31.6286Z" fill="black"/>
<path opacity="0.1" d="M346.412 43.4283C346.201 45.1906 345.587 46.8805 344.616 48.3665C344.625 48.5492 344.63 48.7327 344.63 48.9175C344.631 51.9104 343.473 54.7875 341.4 56.9462C339.327 59.1049 336.499 60.3779 333.509 60.4987C330.518 60.6194 327.597 59.5785 325.357 57.5939C323.116 55.6093 321.731 52.8349 321.49 49.8517C321.465 50.1637 321.449 50.4785 321.449 50.7971C321.449 53.8711 322.67 56.8192 324.844 58.9928C327.018 61.1665 329.966 62.3876 333.04 62.3876C336.114 62.3876 339.062 61.1665 341.236 58.9928C343.409 56.8192 344.63 53.8711 344.63 50.7971C344.63 50.6123 344.625 50.4287 344.616 50.2461C346.022 48.0924 346.669 45.5315 346.454 42.9688C346.442 43.1217 346.431 43.2746 346.412 43.4283Z" fill="black"/>
<path opacity="0.1" d="M344.156 31.1929C344.031 32.167 343.707 33.1052 343.205 33.9493C343.408 34.1574 343.599 34.3755 343.786 34.598C344.181 33.5092 344.308 32.3412 344.156 31.1929H344.156Z" fill="black"/>
</g>
<path d="M296.495 160.183C296.551 160.842 296.729 161.485 297.022 162.079C297.171 162.374 297.388 162.63 297.655 162.826C297.923 163.021 298.232 163.151 298.559 163.204C299.16 163.208 299.749 163.037 300.254 162.712C301.286 162.174 302.357 161.547 302.896 160.515C303.417 159.516 303.342 158.323 303.254 157.2L302.561 148.362C300.892 148.316 299.215 148.316 297.547 148.407C295.895 148.497 295.605 148.886 295.835 150.499C296.292 153.709 296.069 156.97 296.495 160.183Z" fill="#FBBEBE"/>
<path d="M345.472 166.156L349.444 172.573C349.614 172.946 349.925 173.238 350.308 173.385C350.593 173.427 350.883 173.376 351.138 173.241C352.462 172.662 353.476 171.563 354.449 170.494C355.109 169.768 355.791 169.003 356.039 168.054C356.167 167.539 356.162 167 356.023 166.488C355.884 165.976 355.616 165.508 355.246 165.129C354.782 164.725 354.28 164.367 353.748 164.059C350.608 161.941 349.191 157.918 346.092 155.741C345.913 155.593 345.695 155.499 345.464 155.471C345.233 155.485 345.011 155.559 344.819 155.688C343.406 156.462 341.994 157.236 340.581 158.01C338.746 159.014 339.328 159.132 340.721 160.213C342.774 161.806 344.056 164.032 345.472 166.156Z" fill="#FBBEBE"/>
<path d="M305.119 155.071C304.537 154.888 303.885 154.723 303.336 154.989C303.08 155.146 302.863 155.36 302.702 155.614C302.541 155.868 302.44 156.155 302.408 156.454C302.297 157.044 302.31 157.656 302.147 158.233C301.87 159.206 301.129 159.967 300.414 160.683C300.125 161.028 299.75 161.289 299.326 161.44C298.753 161.587 298.144 161.319 297.562 161.42C297.223 161.507 296.914 161.686 296.668 161.936C296.423 162.186 296.251 162.498 296.17 162.839C296.019 163.523 295.996 164.228 296.102 164.92L296.553 169.846C296.632 170.447 296.639 171.054 296.571 171.656C296.405 172.739 295.776 173.69 295.427 174.728C295.077 175.766 295.097 177.092 295.971 177.753C296.276 177.956 296.627 178.08 296.993 178.112C297.358 178.144 297.726 178.084 298.062 177.937C298.731 177.635 299.323 177.185 299.793 176.622C302.469 173.705 303.663 169.753 305.744 166.386C306.275 165.607 306.75 164.791 307.166 163.945C307.451 163.291 307.633 162.597 307.864 161.922C308.183 161.02 308.566 160.141 309.01 159.293C309.257 158.808 310.205 157.64 310.006 157.098C309.666 156.174 306.02 155.355 305.119 155.071Z" fill="#2F2E41"/>
<path d="M353.356 168.658C352.754 169.787 351.749 170.648 350.542 171.07C350.191 171.165 349.865 171.334 349.585 171.565C349.401 171.789 349.288 172.063 349.258 172.351C349.228 172.64 349.284 172.93 349.418 173.188C349.694 173.696 350.054 174.156 350.482 174.546C352.884 177.088 354.472 180.288 355.043 183.738C355.185 184.608 355.278 185.533 355.799 186.245C356.817 187.635 358.983 187.544 360.513 186.752C360.98 186.538 361.385 186.209 361.691 185.796C361.946 185.349 362.108 184.854 362.168 184.342C362.444 183.074 362.597 181.782 362.623 180.485C362.594 178.036 361.674 175.694 361.234 173.285C360.611 169.865 360.923 166.182 359.331 163.092C359.172 162.73 358.922 162.414 358.604 162.178C358.205 161.969 357.758 161.869 357.309 161.888C355.87 161.829 354.43 161.816 352.99 161.85C352.586 161.859 352.114 161.91 351.905 162.255C351.691 162.608 351.878 163.059 352.066 163.427C352.957 165.171 354.402 166.565 353.356 168.658Z" fill="#2F2E41"/>
<path d="M319.182 107.365C318.779 107.697 318.507 108.16 318.411 108.673C318.316 109.186 318.404 109.716 318.66 110.171C318.979 110.699 319.552 111.191 319.426 111.796C319.296 112.423 318.525 112.636 317.892 112.737C312.314 113.624 306.885 115.257 301.477 116.886L295.804 118.594C294.168 119.086 292.504 119.592 291.091 120.551C289.794 121.435 288.767 122.661 288.126 124.093C287.477 125.548 287.254 127.149 287.023 128.725C286.171 134.522 285.083 140.376 282.496 145.634L296.255 150.145C297.589 150.635 298.971 150.983 300.378 151.183C301.719 151.294 303.069 151.229 304.393 150.989C304.308 147.916 304.256 144.751 304.17 141.679C304.161 140.709 304.098 139.739 303.981 138.776C303.775 137.304 303.318 135.871 303.176 134.392C303.811 133.868 304.733 133.998 305.556 134.022C307.433 134.077 309.265 133.424 310.934 132.564C312.604 131.704 314.156 130.632 315.816 129.755C318.582 128.292 321.727 127.308 323.838 124.999C322.763 129.098 320.222 132.669 319.731 136.878C319.234 141.131 320.965 145.292 322.659 149.224L328.072 161.786C328.67 163.173 329.466 164.732 330.939 165.063C331.857 165.269 332.804 164.924 333.657 164.525C338.639 162.192 342.624 157.806 347.944 156.403C347.547 153.769 345.466 151.591 344.287 149.202C343.293 147.187 342.968 144.919 342.306 142.772C341.643 140.625 340.505 138.45 338.504 137.429C337.553 136.945 336.273 136.523 336.184 135.46C336.178 135.119 336.25 134.78 336.396 134.471C337.108 132.678 338.215 131.067 339.633 129.758C339.816 129.617 339.962 129.435 340.059 129.225C340.112 129.018 340.122 128.803 340.091 128.591C339.99 126.881 340.906 125.281 341.928 123.906C342.95 122.53 344.13 121.221 344.706 119.608C345.697 116.833 344.714 113.784 343.734 111.005C343.339 109.882 342.922 108.725 342.109 107.855C340.835 106.491 338.849 106.097 336.993 105.894C330.992 105.236 323.95 103.663 319.182 107.365Z" fill="#2F2E41"/>
<g opacity="0.1">
<path opacity="0.1" d="M318.557 108.195C318.758 108.154 318.946 108.059 319.099 107.921C319.251 107.783 319.365 107.607 319.426 107.41C319.442 107.333 319.446 107.254 319.44 107.176C319.354 107.239 319.266 107.299 319.181 107.365C318.906 107.584 318.691 107.869 318.557 108.195Z" fill="black"/>
</g>
<path d="M328.664 63.8815C328.736 65.2521 328.322 66.7189 327.268 67.5983C326.93 67.8804 326.538 68.0942 326.213 68.391C325.924 68.6878 325.703 69.0441 325.566 69.4349C325.428 69.8258 325.378 70.2418 325.417 70.6542C325.457 71.0666 325.586 71.4654 325.796 71.8228C326.005 72.1803 326.29 72.4878 326.63 72.7241C327.724 73.3916 329.115 73.2115 330.378 72.9924C332.062 72.757 333.713 72.3262 335.297 71.7088C336.891 71.0829 338.247 69.972 339.175 68.5331C337.8 67.7664 337.051 66.1562 336.967 64.5842C336.884 63.0101 337.315 61.2238 336.319 60.0027C335.359 58.8267 333.552 58.8353 332.089 59.239C331.354 59.4416 330.643 59.7218 329.907 59.9201C329.535 60.0205 328.304 60.0232 328.06 60.2977C327.617 60.7967 328.623 63.0885 328.664 63.8815Z" fill="#FBBEBE"/>
<path opacity="0.1" d="M328.664 63.8815C328.736 65.2521 328.322 66.7189 327.268 67.5983C326.93 67.8804 326.538 68.0942 326.213 68.391C325.924 68.6878 325.703 69.0441 325.566 69.4349C325.428 69.8258 325.378 70.2418 325.417 70.6542C325.457 71.0666 325.586 71.4654 325.796 71.8228C326.005 72.1803 326.29 72.4878 326.63 72.7241C327.724 73.3916 329.115 73.2115 330.378 72.9924C332.062 72.757 333.713 72.3262 335.297 71.7088C336.891 71.0829 338.247 69.972 339.175 68.5331C337.8 67.7664 337.051 66.1562 336.967 64.5842C336.884 63.0101 337.315 61.2238 336.319 60.0027C335.359 58.8267 333.552 58.8353 332.089 59.239C331.354 59.4416 330.643 59.7218 329.907 59.9201C329.535 60.0205 328.304 60.0232 328.06 60.2977C327.617 60.7967 328.623 63.0885 328.664 63.8815Z" fill="black"/>
<path d="M332.883 63.7973C337.381 63.7973 341.028 60.1507 341.028 55.6525C341.028 51.1543 337.381 47.5078 332.883 47.5078C328.385 47.5078 324.738 51.1543 324.738 55.6525C324.738 60.1507 328.385 63.7973 332.883 63.7973Z" fill="#FBBEBE"/>
<path d="M307.163 118.14C307.016 118.784 306.757 119.396 306.396 119.949C305.446 121.636 305.103 123.597 305.424 125.507C305.595 126.454 305.998 127.344 306.595 128.098C307.192 128.853 307.965 129.449 308.847 129.835C309.61 130.135 310.554 130.214 311.183 129.688C310.095 128.273 310.037 126.34 310.102 124.556C310.083 124.223 310.163 123.892 310.331 123.604C310.375 123.535 310.433 123.476 310.502 123.431C310.57 123.386 310.647 123.355 310.727 123.341C310.808 123.326 310.891 123.329 310.97 123.348C311.05 123.367 311.125 123.402 311.191 123.451C311.163 124.574 311.38 125.69 311.827 126.721C311.999 127.118 312.293 127.556 312.726 127.545C313.346 127.528 313.513 126.689 313.49 126.069C313.394 123.543 313.27 120.912 312.053 118.696C311.607 117.885 311.013 117.124 310.843 116.214C310.835 115.899 310.726 115.594 310.532 115.346C310.398 115.24 310.241 115.167 310.074 115.132C309.372 114.934 307.713 114.317 307.134 114.974C306.514 115.678 307.275 117.298 307.163 118.14Z" fill="#FBBEBE"/>
<path d="M319.259 74.8657C318.325 74.7607 317.587 75.6155 317.076 76.404C315.169 79.3439 313.797 82.5975 313.022 86.0147C312.628 87.7589 312.38 89.5705 311.552 91.1555C311.352 91.4845 311.192 91.8356 311.073 92.2015C311.002 92.7605 310.977 93.3242 310.998 93.8872C310.912 94.905 310.311 95.809 310.109 96.8102C309.989 97.4069 310.013 98.0247 309.906 98.6239C309.719 99.6734 309.142 100.607 308.773 101.607C308.123 103.368 308.129 105.302 307.651 107.117C307.593 107.416 307.463 107.697 307.274 107.936C306.95 108.292 306.432 108.379 306.008 108.607C305.674 108.811 305.388 109.084 305.169 109.408C304.949 109.732 304.802 110.099 304.736 110.484C304.61 111.255 304.595 112.04 304.693 112.816L305.067 117.633C305.453 117.471 305.705 117.035 306.027 116.767C306.616 116.278 307.48 116.387 308.234 116.524L309.332 116.723C310.454 116.926 311.676 117.186 312.396 118.071C312.968 117.176 312.641 115.857 313.521 115.261C313.807 115.067 314.161 115.002 314.463 114.834C314.747 114.65 314.982 114.4 315.149 114.106C315.316 113.811 315.409 113.481 315.421 113.143C315.439 112.467 315.346 111.793 315.146 111.148C316.556 110.552 317.43 109.125 317.982 107.697C318.589 105.969 319.028 104.186 319.293 102.374C320.567 95.2146 321.731 88.0037 321.847 80.7326C321.927 79.5163 321.793 78.2954 321.45 77.1256C321.049 75.9776 320.468 75.0017 319.259 74.8657Z" fill="#D0CDE1"/>
<path d="M339.792 67.0684C338.448 68.4784 336.73 69.4764 334.839 69.9454C332.958 70.4081 331.037 70.691 329.103 70.7905C328.508 70.8901 327.897 70.8374 327.328 70.6372C326.782 70.3894 326.366 69.7418 326.588 69.1842C326.696 69.0117 326.769 68.8197 326.803 68.6191C326.793 68.123 326.063 68.0819 325.589 68.2285C322.454 69.1983 319.447 71.1186 318 74.0643C317.182 75.7282 316.913 77.5994 316.653 79.4351C315.972 84.2632 315.292 89.1965 316.206 93.9861C316.693 96.5401 317.63 99.0297 317.689 101.629C317.721 103.086 317.476 104.537 317.487 105.994C317.444 106.504 317.58 107.013 317.873 107.434C318.099 107.696 318.439 107.861 318.596 108.169C318.859 108.684 318.508 109.39 318.854 109.853C319.28 110.423 320.171 110.014 320.759 109.612C323.714 107.605 327.284 106.706 330.837 107.075C335.106 107.533 339.347 109.808 343.487 108.671C343.274 108.36 343.09 108.03 342.938 107.685C340.874 100.902 341.013 93.3194 344.103 86.9372C345.158 84.7568 346.559 82.6789 346.963 80.2905C347.126 79.1733 347.139 78.0394 347.002 76.9188C346.784 74.7506 346.268 72.5644 345.089 70.7313C343.911 68.8982 341.961 67.283 339.792 67.0684Z" fill="#D0CDE1"/>
<path d="M320.088 120.236C319.756 121.122 319.597 122.063 319.619 123.009C319.588 123.913 319.633 124.818 319.753 125.715C319.823 126.482 320.096 127.216 320.545 127.841C320.774 128.149 321.09 128.382 321.452 128.511C321.814 128.639 322.206 128.658 322.578 128.564C322.871 128.443 323.133 128.257 323.346 128.021C323.558 127.785 323.715 127.505 323.805 127.2C323.98 126.592 324.109 125.971 324.19 125.343C324.547 123.494 325.518 121.759 325.534 119.876C325.548 119.653 325.513 119.429 325.431 119.221C325.078 118.447 323.348 117.579 322.503 117.709C321.445 117.872 320.471 119.343 320.088 120.236Z" fill="#FBBEBE"/>
<path opacity="0.1" d="M343.593 73.9446C343.432 75.564 344.998 76.7845 345.617 78.2895C345.871 78.992 346.015 79.7292 346.045 80.4754C346.48 85.6534 346.142 90.8616 345.804 96.0468C345.742 97.773 345.528 99.4904 345.164 101.179C344.29 104.722 342.139 107.794 340.032 110.773C339.307 111.968 338.2 112.882 336.889 113.365L329.657 116.868C328.751 117.268 327.89 117.764 327.089 118.346C326.158 119.075 325.427 120.027 324.962 121.114C323.559 120.397 322.102 119.753 320.699 119.037C320.371 118.869 320.004 118.65 319.947 118.285C319.871 117.796 320.382 117.451 320.734 117.103C321.392 116.452 321.595 115.487 321.951 114.633C323.115 111.842 326.042 110.055 327.098 107.222C327.503 106.133 327.627 104.902 328.347 103.99C328.759 103.532 329.222 103.123 329.727 102.772C330.842 101.826 331.866 100.777 332.786 99.6404C333.199 99.2117 333.537 98.7165 333.786 98.1756C334.102 97.3714 334.007 96.4747 334.024 95.6107C334.078 92.7824 335.357 90.1447 336.139 87.4264C336.877 84.8665 337.184 82.1812 338.152 79.699C339.119 77.2168 341.014 74.6119 343.593 73.9446Z" fill="black"/>
<path d="M344.532 73.9446C344.371 75.564 345.938 76.7845 346.557 78.2895C346.81 78.992 346.954 79.7292 346.984 80.4754C347.419 85.6534 347.081 90.8616 346.743 96.0468C346.682 97.773 346.468 99.4904 346.104 101.179C345.229 104.722 343.079 107.794 340.971 110.773C340.247 111.968 339.139 112.882 337.828 113.365L330.597 116.868C329.691 117.268 328.83 117.764 328.028 118.346C327.098 119.075 326.366 120.027 325.902 121.114C324.499 120.397 323.042 119.753 321.639 119.037C321.31 118.869 320.943 118.65 320.887 118.285C320.81 117.796 321.321 117.451 321.673 117.103C322.331 116.452 322.534 115.487 322.89 114.633C324.054 111.842 326.981 110.055 328.037 107.222C328.443 106.133 328.567 104.902 329.286 103.99C329.698 103.532 330.161 103.123 330.666 102.772C331.781 101.826 332.805 100.777 333.725 99.6404C334.138 99.2117 334.477 98.7165 334.726 98.1756C335.042 97.3714 334.947 96.4747 334.963 95.6107C335.017 92.7824 336.296 90.1447 337.079 87.4264C337.816 84.8665 338.124 82.1812 339.091 79.699C340.058 77.2168 341.953 74.6119 344.532 73.9446Z" fill="#D0CDE1"/>
<path d="M336.921 43.0613C334.412 42.7546 331.871 43.2806 329.689 44.5585C330.011 44.5705 330.334 44.5925 330.659 44.6317C333.069 44.9228 335.327 45.9633 337.114 47.6065C338.901 49.2497 340.127 51.4126 340.619 53.79C341.111 56.1674 340.844 58.6391 339.855 60.8565C338.867 63.0739 337.207 64.9249 335.11 66.1483C338.098 66.2573 341.012 65.2075 343.244 63.2181C345.476 61.2288 346.852 58.4539 347.086 55.4733C347.32 52.4928 346.393 49.5371 344.499 47.2241C342.604 44.9111 339.889 43.4196 336.921 43.0613Z" fill="#2F2E41"/>
<path d="M340.488 49.5047C340.769 50.1421 340.922 50.8287 340.938 51.5253C340.954 52.2219 340.832 52.9148 340.579 53.5642C340.524 53.3963 340.461 53.2314 340.389 53.07C338.957 49.8822 334.543 48.5627 330.532 50.1228C328.169 51.0418 326.473 52.7554 325.771 54.66C324.75 51.5784 326.824 48.0378 330.63 46.5575C334.642 44.9974 339.055 46.3169 340.488 49.5047Z" fill="#2F2E41"/>
<g opacity="0.1">
<path opacity="0.1" d="M340.509 53.3114C340.324 51.0741 339.493 48.9385 338.119 47.1637C336.744 45.3889 334.884 44.051 332.764 43.3123C331.684 43.578 330.649 43.9977 329.689 44.5586C330.011 44.5706 330.334 44.5925 330.659 44.6318C332.986 44.9132 335.173 45.8932 336.931 47.4428C338.69 48.9923 339.937 51.0385 340.509 53.3114Z" fill="black"/>
<path opacity="0.1" d="M342.388 44.8534C342.203 42.6161 341.372 40.4805 339.998 38.7057C338.623 36.9309 336.763 35.593 334.643 34.8542C333.563 35.12 332.528 35.5397 331.568 36.1005C331.89 36.1126 332.213 36.1345 332.538 36.1738C334.865 36.4551 337.051 37.4352 338.81 38.9847C340.569 40.5343 341.816 42.5805 342.388 44.8534Z" fill="black"/>
<path opacity="0.1" d="M342.436 32.2204C342.324 30.8701 341.823 29.5813 340.993 28.5102C340.164 27.4391 339.041 26.6316 337.762 26.1858C337.11 26.3462 336.485 26.5995 335.906 26.9379C336.1 26.9452 336.295 26.9584 336.491 26.9821C337.896 27.1519 339.215 27.7434 340.277 28.6786C341.338 29.6137 342.091 30.8486 342.436 32.2204Z" fill="black"/>
<path opacity="0.1" d="M346.771 51.741C346.996 54.5205 346.213 57.2882 344.564 59.537C342.915 61.7859 340.511 63.3654 337.792 63.9863C337.01 64.8358 336.106 65.5644 335.109 66.1483C336.906 66.214 338.694 65.8606 340.331 65.116C341.968 64.3715 343.409 63.2562 344.54 61.8585C345.671 60.4608 346.462 58.8189 346.849 57.0629C347.236 55.3069 347.209 53.4848 346.771 51.741V51.741Z" fill="black"/>
</g>
<path d="M310.719 126.006L309.221 80.6931" stroke="#1C3F43" stroke-width="2" stroke-miterlimit="10"/>
<path d="M309.22 87.1045C312.761 87.1045 315.631 84.234 315.631 80.6931C315.631 77.1522 312.761 74.2817 309.22 74.2817C305.679 74.2817 302.809 77.1522 302.809 80.6931C302.809 84.234 305.679 87.1045 309.22 87.1045Z" fill="#1C3F43"/>
<path d="M310.144 108.62C310.144 108.62 308.577 88.9622 289.887 91.8714L310.144 108.62Z" fill="#1C3F43"/>
<defs>
<linearGradient id="paint0_linear" x1="338.499" y1="63.0173" x2="338.499" y2="58.0503" gradientUnits="userSpaceOnUse">
<stop stop-color="#808080" stop-opacity="0.25"/>
<stop offset="0.53514" stop-color="#808080" stop-opacity="0.12"/>
<stop offset="1" stop-color="#808080" stop-opacity="0.1"/>
</linearGradient>
</defs>
</svg>
