<svg width="240" height="240" viewBox="0 0 240 240" fill="none" xmlns="http://www.w3.org/2000/svg">
<rect width="240" height="240" rx="20" fill="#FAB44D" fill-opacity="0.3"/>
<path d="M223.514 188.927H16.1445V189.374H223.514V188.927Z" fill="#3F3D56"/>
<path d="M32.4551 107.936L32.2812 108.348L223.276 189.113L223.45 188.702L32.4551 107.936Z" fill="#3F3D56"/>
<path d="M223.514 107.899H16.1445V108.346H223.514V107.899Z" fill="#3F3D56"/>
<path d="M195.389 117.609C195.417 127.055 193.584 136.413 189.994 145.15C186.404 153.887 181.128 161.831 174.467 168.527C173.732 169.266 172.981 169.988 172.214 170.693C171.29 171.545 170.342 172.372 169.371 173.173C169.185 173.327 169 173.478 168.812 173.628C164.974 176.739 160.817 179.435 156.411 181.671C156.149 181.802 155.888 181.934 155.625 182.063C155.207 182.269 154.785 182.47 154.364 182.666C138.746 189.933 120.986 191.139 104.53 186.048C75.7196 177.106 54.7617 149.849 54.7617 117.609C54.7617 78.0976 86.2421 46.0681 125.075 46.0681C163.908 46.0681 195.389 78.0976 195.389 117.609Z" fill="#BBCBC2"/>
<path d="M140.728 102.602L140.784 102.599L140.564 102.116C140.317 101.431 140.014 100.767 139.66 100.131L133.201 85.9501C132.995 85.4975 132.661 85.1149 132.241 84.8493C131.82 84.5837 131.331 84.4467 130.834 84.4549L122.655 84.5912C122.126 84.6 121.613 84.7728 121.186 85.0858C120.76 85.3987 120.441 85.8363 120.274 86.3382L115.132 101.782C114.962 102.215 114.816 102.656 114.692 103.103L114.517 103.628L114.558 103.626C114.082 105.663 114.082 107.782 114.559 109.818C115.036 111.855 115.977 113.754 117.309 115.367C118.64 116.98 120.327 118.264 122.236 119.118C124.145 119.973 126.226 120.375 128.316 120.293C130.406 120.211 132.449 119.648 134.285 118.647C136.122 117.646 137.702 116.234 138.904 114.522C140.105 112.809 140.895 110.843 141.211 108.775C141.528 106.707 141.362 104.595 140.728 102.602H140.728Z" fill="#3F3D56"/>
<path d="M125.486 88.0594L122.912 102.13L123.203 102.183L125.776 88.1125L125.486 88.0594Z" fill="#254C50"/>
<path d="M128.578 88.0076L128.289 88.0703L131.327 102.048L131.616 101.985L128.578 88.0076Z" fill="#254C50"/>
<path d="M121.765 77.6659L132.246 77.4913C132.324 77.4899 132.4 77.5198 132.456 77.5743C132.513 77.6287 132.545 77.7033 132.546 77.7816C132.548 77.8599 132.518 77.9355 132.463 77.9918C132.409 78.0481 132.334 78.0804 132.256 78.0817L121.775 78.2563C121.736 78.257 121.698 78.25 121.661 78.2358C121.625 78.2215 121.592 78.2003 121.565 78.1734C121.537 78.1464 121.514 78.1142 121.499 78.0786C121.484 78.0431 121.475 78.0048 121.475 77.966C121.474 77.9273 121.481 77.8887 121.495 77.8527C121.509 77.8166 121.531 77.7837 121.558 77.7558C121.585 77.7279 121.617 77.7057 121.652 77.6902C121.688 77.6748 121.726 77.6665 121.765 77.6659Z" fill="#3F3D56"/>
<path d="M121.876 79.879L132.357 79.7044C132.436 79.7031 132.511 79.7329 132.568 79.7874C132.624 79.8418 132.656 79.9164 132.658 79.9947C132.659 80.073 132.629 80.1486 132.575 80.2049C132.52 80.2612 132.446 80.2936 132.367 80.2949L121.886 80.4695C121.808 80.4708 121.732 80.4409 121.676 80.3865C121.62 80.332 121.587 80.2575 121.586 80.1792C121.585 80.1009 121.615 80.0252 121.669 79.9689C121.723 79.9127 121.798 79.8803 121.876 79.879Z" fill="#3F3D56"/>
<path d="M121.984 82.0921L132.465 81.9175C132.543 81.9162 132.619 81.9461 132.675 82.0005C132.731 82.055 132.764 82.1295 132.765 82.2078C132.766 82.2861 132.736 82.3618 132.682 82.4181C132.628 82.4743 132.553 82.5067 132.475 82.508L121.994 82.6826C121.915 82.6839 121.84 82.6541 121.783 82.5996C121.727 82.5452 121.695 82.4706 121.693 82.3923C121.692 82.314 121.722 82.2384 121.776 82.1821C121.831 82.1258 121.905 82.0934 121.984 82.0921Z" fill="#3F3D56"/>
<path d="M126.971 75.4727C124.892 75.5073 123.226 76.6941 123.25 78.1234L130.779 77.998C130.755 76.5687 129.05 75.4381 126.971 75.4727Z" fill="#3F3D56"/>
<path d="M128.13 104.208C128.541 104.235 128.93 104.402 129.234 104.679C129.312 104.744 129.388 104.811 129.465 104.879C129.708 105.133 130.005 105.327 130.335 105.448C131.056 105.645 131.769 105.075 132.37 104.491L132.575 104.703C131.915 105.345 131.123 105.969 130.257 105.733C129.883 105.602 129.545 105.385 129.27 105.101C129.195 105.035 129.121 104.969 129.046 104.906C128.799 104.702 128.322 104.383 127.899 104.549C127.723 104.634 127.566 104.755 127.439 104.903C127.34 105.007 127.234 105.103 127.12 105.19C126.887 105.356 126.611 105.448 126.326 105.457C126.041 105.465 125.759 105.389 125.517 105.238C125.43 105.18 125.347 105.117 125.267 105.05C125.135 104.92 124.972 104.827 124.792 104.78C124.542 104.745 124.314 104.924 124.072 105.114C123.843 105.336 123.551 105.481 123.236 105.529C123.226 105.529 123.215 105.53 123.204 105.53C122.616 105.54 122.243 104.951 122.012 104.504L122.274 104.368C122.588 104.977 122.89 105.254 123.221 105.234C123.474 105.185 123.707 105.063 123.89 104.881C124.169 104.662 124.458 104.435 124.833 104.488C125.067 104.539 125.281 104.654 125.452 104.821C125.524 104.881 125.599 104.937 125.677 104.99C125.869 105.107 126.092 105.166 126.317 105.16C126.542 105.153 126.761 105.081 126.946 104.952C127.047 104.874 127.142 104.787 127.23 104.694C127.385 104.516 127.577 104.373 127.791 104.274C127.899 104.231 128.014 104.209 128.13 104.208Z" fill="#254C50"/>
<path d="M127.303 46H126.996V75.4607H127.303V46Z" fill="#3F3D56"/>
<path d="M219.919 97.0431C218.048 103.96 211.639 108.243 211.639 108.243C211.639 108.243 208.264 101.313 210.135 94.3964C212.006 87.4799 218.415 83.1963 218.415 83.1963C218.415 83.1963 221.79 90.1266 219.919 97.0431Z" fill="#254C50"/>
<path d="M202.897 97.0431C204.768 103.96 211.177 108.243 211.177 108.243C211.177 108.243 214.552 101.313 212.681 94.3964C210.81 87.4799 204.401 83.1963 204.401 83.1963C204.401 83.1963 201.026 90.1266 202.897 97.0431Z" fill="#254C50"/>
<path d="M205.648 95.5569C210.782 100.555 211.409 108.238 211.409 108.238C211.409 108.238 203.712 107.817 198.578 102.82C193.444 97.8216 192.816 90.1387 192.816 90.1387C192.816 90.1387 200.513 90.5589 205.648 95.5569Z" fill="#3F3D56"/>
<path d="M217.168 95.5569C212.033 100.555 211.406 108.238 211.406 108.238C211.406 108.238 219.103 107.817 224.237 102.82C229.372 97.8216 229.999 90.1387 229.999 90.1387C229.999 90.1387 222.302 90.5589 217.168 95.5569Z" fill="#3F3D56"/>
<path d="M37.1029 177.848C35.2318 184.765 28.8231 189.048 28.8231 189.048C28.8231 189.048 25.4479 182.118 27.3189 175.201C29.19 168.285 35.5987 164.001 35.5987 164.001C35.5987 164.001 38.9739 170.932 37.1029 177.848Z" fill="#254C50"/>
<path d="M20.0807 177.848C21.9517 184.765 28.3605 189.048 28.3605 189.048C28.3605 189.048 31.7357 182.118 29.8646 175.201C27.9936 168.285 21.5848 164.001 21.5848 164.001C21.5848 164.001 18.2096 170.932 20.0807 177.848Z" fill="#254C50"/>
<path d="M22.8312 176.362C27.9654 181.359 28.5925 189.042 28.5925 189.042C28.5925 189.042 20.8955 188.622 15.7613 183.624C10.6271 178.626 10 170.943 10 170.943C10 170.943 17.6971 171.364 22.8312 176.362Z" fill="#3F3D56"/>
<path d="M34.355 176.362C29.2209 181.359 28.5938 189.042 28.5938 189.042C28.5938 189.042 36.2908 188.622 41.425 183.624C46.5592 178.626 47.1863 170.943 47.1863 170.943C47.1863 170.943 39.4892 171.364 34.355 176.362Z" fill="#3F3D56"/>
<path d="M159.631 113.953C162.003 113.953 163.925 112.03 163.925 109.659C163.925 107.288 162.003 105.366 159.631 105.366C157.26 105.366 155.338 107.288 155.338 109.659C155.338 112.03 157.26 113.953 159.631 113.953Z" fill="#2F2E41"/>
<path d="M155.032 107.819C155.032 106.76 155.423 105.739 156.131 104.951C156.839 104.163 157.812 103.664 158.865 103.551C158.266 103.486 157.659 103.547 157.085 103.732C156.51 103.916 155.982 104.22 155.533 104.623C155.084 105.025 154.724 105.518 154.478 106.069C154.233 106.62 154.105 107.216 154.105 107.819C154.105 108.422 154.233 109.019 154.478 109.569C154.724 110.12 155.084 110.613 155.533 111.016C155.982 111.418 156.51 111.722 157.085 111.906C157.659 112.091 158.266 112.153 158.865 112.087C157.812 111.974 156.839 111.475 156.131 110.687C155.423 109.9 155.032 108.878 155.032 107.819Z" fill="#2F2E41"/>
<path d="M155.336 109.659C155.336 109.659 154.669 112.726 158.836 113.953L155.336 109.659Z" fill="#254C50"/>
<path d="M161.408 138.822C169.368 138.822 175.822 132.369 175.822 124.409C175.822 116.448 169.368 109.995 161.408 109.995C153.447 109.995 146.994 116.448 146.994 124.409C146.994 132.369 153.447 138.822 161.408 138.822Z" fill="#2F2E41"/>
<path d="M169.37 173.173C169.185 173.327 168.999 173.478 168.812 173.628C164.973 176.739 160.816 179.435 156.41 181.67C156.149 181.802 155.888 181.934 155.624 182.063C155.207 182.269 154.785 182.47 154.363 182.666L146.975 180.204L147.059 178.434V178.427L147.381 171.677L147.49 169.369L169.37 173.173Z" fill="#A0616A"/>
<path d="M155.624 182.063C155.207 182.269 154.785 182.47 154.363 182.666C151.477 184.015 148.5 185.162 145.455 186.097C145.439 186.052 145.43 186.006 145.428 185.959L146.975 178.398L147.059 178.434L155.624 182.063Z" fill="#2F2E41"/>
<path d="M157.811 139.701C163.082 139.701 167.356 135.427 167.356 130.156C167.356 124.884 163.082 120.61 157.811 120.61C152.539 120.61 148.266 124.884 148.266 130.156C148.266 135.427 152.539 139.701 157.811 139.701Z" fill="#A0616A"/>
<path d="M165.55 130.672C165.55 130.672 167.098 138.411 169.936 140.217L154.199 158.791L148.266 153.116L152.651 145.376C152.651 145.376 157.553 142.539 156.005 138.669L165.55 130.672Z" fill="#A0616A"/>
<path d="M184.225 156.304C181.428 160.722 178.156 164.821 174.466 168.527C174.308 165.067 173.964 162.215 173.29 161.371C173.288 161.371 173.287 161.37 173.286 161.369L165.033 158.791C165.033 158.791 166.839 141.764 171.225 140.991C171.225 140.991 171.861 141.121 172.85 141.42C176.038 142.38 182.882 145.085 183.866 150.793C184.146 152.616 184.266 154.46 184.225 156.304Z" fill="#A0616A"/>
<path d="M152.652 145.376C152.652 145.376 144.913 145.118 140.011 151.31C135.11 157.501 123.243 162.145 123.243 162.145L93.5751 173.754C93.5751 173.754 88.1575 164.209 84.8038 167.562C81.4501 170.916 90.9953 179.429 95.3809 178.397C99.7666 177.366 126.338 169.368 126.338 169.368L147.492 159.823L152.652 145.376Z" fill="#A0616A"/>
<path d="M173.289 161.371L172.213 170.693C171.289 171.545 170.341 172.372 169.369 173.173C169.184 173.327 168.999 173.479 168.811 173.628C161.362 171.345 149.69 171.599 147.38 171.677C147.117 171.684 146.974 171.691 146.974 171.691L146.717 166.273C144.242 165.449 143.429 163.648 143.407 161.666C143.369 158.072 145.942 153.889 145.942 153.889C146.404 153.427 149.858 146.88 150.572 145.523C150.655 145.364 150.701 145.277 150.701 145.277L153.797 144.505C153.797 144.505 153.789 144.529 153.771 144.574C153.494 145.349 151.088 152.355 155.231 152.599C159.306 152.84 168.173 141.393 169.394 139.788C169.485 139.668 169.534 139.603 169.534 139.603L172.889 141.409C172.876 141.413 172.862 141.416 172.849 141.42C170.8 141.989 168.903 146.925 168.903 146.925C163.552 156.353 173.05 161.251 173.284 161.369C173.285 161.37 173.287 161.371 173.289 161.371Z" fill="#D0CDE1"/>
<path d="M158.329 118.952C153.248 118.952 149.129 121.354 149.129 124.318C149.129 125.645 149.957 126.857 151.324 127.793L153.095 126.51L152.613 128.52C152.813 128.613 153.017 128.703 153.23 128.785L155.876 125.699V129.491C156.687 129.621 157.507 129.686 158.329 129.685C163.41 129.685 167.529 127.282 167.529 124.318C167.529 121.354 163.41 118.952 158.329 118.952Z" fill="#2F2E41"/>
<path d="M177.174 120.66C179.546 120.66 181.468 118.738 181.468 116.367C181.468 113.995 179.546 112.073 177.174 112.073C174.803 112.073 172.881 113.995 172.881 116.367C172.881 118.738 174.803 120.66 177.174 120.66Z" fill="#2F2E41"/>
<path d="M172.575 114.527C172.575 113.468 172.966 112.446 173.674 111.658C174.381 110.871 175.355 110.372 176.408 110.259C176.255 110.242 176.102 110.233 175.948 110.233C175.364 110.232 174.787 110.351 174.25 110.581C173.714 110.811 173.23 111.148 172.828 111.571C172.426 111.994 172.115 112.495 171.913 113.043C171.711 113.591 171.623 114.174 171.655 114.757C171.686 115.34 171.836 115.91 172.095 116.433C172.354 116.956 172.717 117.421 173.162 117.799C173.607 118.177 174.125 118.46 174.683 118.631C175.241 118.802 175.828 118.858 176.408 118.795C175.355 118.681 174.381 118.183 173.674 117.395C172.966 116.607 172.575 115.586 172.575 114.527Z" fill="#2F2E41"/>
<path d="M172.881 116.366C172.881 116.366 172.214 119.433 176.381 120.66L172.881 116.366Z" fill="#254C50"/>
<path d="M167.743 131.059C168.155 131.059 168.489 130.308 168.489 129.382C168.489 128.456 168.155 127.705 167.743 127.705C167.332 127.705 166.998 128.456 166.998 129.382C166.998 130.308 167.332 131.059 167.743 131.059Z" fill="#A0616A"/>
<path d="M85.4894 135.869L74.1774 138.61L74.1405 138.618L72.9109 139.732L72.557 140.052L71.7982 139.914L70.4551 139.671L71.3911 136.512L71.5666 130.487L70.9231 126.801L74.4915 124.344C74.4915 124.344 81.453 123.935 85.4894 135.869Z" fill="#D0CDE1"/>
<path opacity="0.1" d="M74.1774 138.61C74.0241 138.937 74.3453 138.721 74.1698 139.057L72.5318 139.584L71.7982 139.914L70.4551 139.671L71.3911 136.512L71.5666 130.487L70.9231 126.801L74.4915 124.344C74.4915 124.344 78.3215 129.769 74.1774 138.61Z" fill="black"/>
<path d="M98.8265 127.211C98.8265 127.211 83.9677 134.114 77.9422 135.167C71.9168 136.22 72.4433 142.245 72.4433 142.245L106.197 136.98C106.197 136.98 105.027 131.54 98.8265 127.211Z" fill="#D0CDE1"/>
<path d="M70.1597 126.041C70.1597 126.041 72.7337 132.3 69.8672 140.081L73.2017 141.602L74.4886 140.081L74.5179 139.935L70.9787 139.613C70.9787 139.613 73.9036 131.774 71.5052 126.333C71.5052 126.333 70.9787 125.163 70.1597 126.041Z" fill="#254C50"/>
<path d="M119.243 172.431C106.08 169.506 93.8246 175.561 93.8246 175.561L93.7913 175.531L88.9107 171.173L69.8398 140.052L74.4905 140.081C87.4189 132.359 105.612 133.412 105.612 133.412C113.451 142.304 119.243 172.431 119.243 172.431Z" fill="#3F3D56"/>
<path opacity="0.1" d="M93.7913 175.531L88.9107 171.173L69.8398 140.052L74.4905 140.081C74.4905 140.081 93.0267 164.562 93.7913 175.531Z" fill="black"/>
<path d="M95.9342 151.248C99.9188 150.026 102.519 146.982 101.742 144.449C100.965 141.916 97.1055 140.854 93.1209 142.076C89.1364 143.298 86.536 146.342 87.3129 148.875C88.0898 151.408 91.9497 152.47 95.9342 151.248Z" fill="#D0CDE1"/>
<path d="M16.204 112.107C18.5463 112.107 20.4452 110.208 20.4452 107.865C20.4452 105.523 18.5463 103.624 16.204 103.624C13.8617 103.624 11.9629 105.523 11.9629 107.865C11.9629 110.208 13.8617 112.107 16.204 112.107Z" fill="#3F3D56"/>
<path d="M223.351 193.581C225.693 193.581 227.592 191.682 227.592 189.34C227.592 186.997 225.693 185.099 223.351 185.099C221.008 185.099 219.109 186.997 219.109 189.34C219.109 191.682 221.008 193.581 223.351 193.581Z" fill="#3F3D56"/>
<path d="M34.7311 111.66C36.5803 111.66 38.0793 110.161 38.0793 108.312C38.0793 106.462 36.5803 104.963 34.7311 104.963C32.8819 104.963 31.3828 106.462 31.3828 108.312C31.3828 110.161 32.8819 111.66 34.7311 111.66Z" fill="#254C50"/>
<path d="M223.35 111.66C225.199 111.66 226.698 110.161 226.698 108.312C226.698 106.462 225.199 104.963 223.35 104.963C221.501 104.963 220.002 106.462 220.002 108.312C220.002 110.161 221.501 111.66 223.35 111.66Z" fill="#254C50"/>
<path d="M16.2037 192.241C18.0529 192.241 19.552 190.742 19.552 188.893C19.552 187.044 18.0529 185.545 16.2037 185.545C14.3545 185.545 12.8555 187.044 12.8555 188.893C12.8555 190.742 14.3545 192.241 16.2037 192.241Z" fill="#254C50"/>
</svg>
