<svg width="240" height="240" viewBox="0 0 240 240" fill="none" xmlns="http://www.w3.org/2000/svg">
<rect width="240" height="240" rx="20" fill="#FAB44D" fill-opacity="0.3"/>
<path d="M75.4512 151.717C74.6949 157.643 71.9137 163.065 68.9467 168.288C68.8486 168.465 68.7477 168.641 68.6443 168.818H37.8071C37.1834 168.656 36.5678 168.479 35.9547 168.288C32.4718 167.227 29.1836 165.609 26.218 163.497C14.873 155.324 10.5074 139.879 12.4792 126.039C13.7053 117.441 17.479 108.662 24.8273 104.031C28.7072 101.582 33.691 100.785 38.1573 101.696C38.2742 101.717 38.391 101.744 38.5103 101.767C42.353 102.633 45.7764 104.782 47.7244 108.245C51.2273 114.468 49.1415 122.178 47.4192 129.104C45.7021 136.031 44.7706 144.321 49.7545 149.43C48.1091 144.586 49.7332 138.809 53.6635 135.534C56.6331 133.064 60.7678 132.137 64.5388 132.904C64.8997 132.981 65.2554 133.069 65.6056 133.175C66.4523 133.423 67.2685 133.765 68.0392 134.194C73.9173 137.477 76.2978 145.038 75.4512 151.717Z" fill="#F2F2F2"/>
<path d="M57.1664 168.287C58.0208 168.486 58.878 168.662 59.7405 168.818H55.0778C54.4673 168.654 53.8596 168.478 53.2573 168.287C51.933 167.873 50.6291 167.398 49.3455 166.862C44.1972 164.702 39.4548 161.459 35.8669 157.144C34.1122 155.054 32.6793 152.713 31.6155 150.199C30.462 147.358 29.729 144.364 29.4395 141.312C28.7892 135.049 29.4527 128.613 30.692 122.462C31.9709 116.086 34.0354 109.893 36.8382 104.026C37.1753 103.322 37.5238 102.624 37.8838 101.929C37.9086 101.872 37.9461 101.821 37.9934 101.781C38.0408 101.74 38.0968 101.711 38.1571 101.696C38.2796 101.672 38.4065 101.698 38.5101 101.767C38.6344 101.839 38.7265 101.955 38.7675 102.092C38.8085 102.229 38.7952 102.377 38.7304 102.505C35.8405 108.141 33.65 114.108 32.2073 120.275C30.7955 126.291 29.9941 132.586 30.2674 138.772C30.5274 144.552 32.0376 150.236 35.4635 154.963C38.5924 159.278 42.9127 162.68 47.6923 164.997C50.7174 166.444 53.8953 167.548 57.1664 168.287V168.287Z" fill="#BBCBC2"/>
<path d="M67.3999 168.818H66.0251C65.8712 168.643 65.7226 168.465 65.5767 168.288C62.4454 164.483 60.3242 159.951 59.4092 155.109C58.2979 149.067 59.1624 142.827 61.8745 137.315C62.6312 135.769 63.5228 134.294 64.539 132.905C64.8998 132.982 65.2555 133.069 65.6058 133.175C62.933 136.716 61.1353 140.839 60.3592 145.208C59.6669 149.301 59.8971 153.497 61.033 157.49C62.1688 161.483 64.1817 165.172 66.9248 168.288C67.0786 168.465 67.2379 168.643 67.3999 168.818Z" fill="#BBCBC2"/>
<path d="M191.235 164.305C191.435 165.869 192.169 167.3 192.952 168.678C192.978 168.725 193.004 168.772 193.032 168.818H201.17C201.335 168.776 201.497 168.729 201.659 168.678C202.578 168.399 203.446 167.972 204.229 167.414C207.223 165.257 208.375 161.181 207.855 157.528C207.531 155.259 206.535 152.942 204.596 151.72C203.543 151.079 202.286 150.858 201.078 151.104C201.047 151.109 201.016 151.116 200.985 151.122C200.482 151.22 200.005 151.422 199.586 151.717C199.167 152.012 198.815 152.392 198.553 152.832C197.628 154.475 198.179 156.509 198.633 158.337C199.087 160.165 199.332 162.353 198.017 163.701C198.21 163.138 198.249 162.533 198.13 161.949C198.012 161.365 197.74 160.823 197.343 160.379C196.945 159.935 196.437 159.604 195.87 159.422C195.303 159.239 194.697 159.211 194.115 159.34C194.02 159.36 193.926 159.384 193.834 159.412C193.61 159.477 193.395 159.567 193.191 159.681C191.64 160.547 191.012 162.542 191.235 164.305Z" fill="#F2F2F2"/>
<path d="M196.06 168.678C195.835 168.731 195.608 168.777 195.381 168.818H196.611C196.773 168.775 196.933 168.729 197.092 168.678C197.441 168.569 197.786 168.444 198.124 168.302C199.498 167.744 200.718 166.865 201.682 165.737C202.145 165.185 202.523 164.568 202.804 163.904C203.108 163.155 203.301 162.364 203.378 161.559C203.517 159.893 203.406 158.216 203.047 156.584C202.71 154.901 202.165 153.267 201.425 151.718C201.336 151.533 201.244 151.348 201.149 151.165C201.143 151.15 201.133 151.136 201.12 151.126C201.108 151.115 201.093 151.107 201.077 151.103C201.045 151.097 201.011 151.104 200.984 151.122C200.951 151.141 200.927 151.172 200.916 151.208C200.905 151.244 200.909 151.283 200.926 151.317C201.688 152.804 202.267 154.379 202.647 156.007C203.04 157.603 203.212 159.246 203.159 160.888C203.131 162.417 202.654 163.903 201.788 165.162C200.945 166.295 199.837 167.205 198.561 167.81C197.762 168.192 196.924 168.483 196.06 168.678Z" fill="#BBCBC2"/>
<path d="M193.361 168.818H193.724C193.765 168.772 193.804 168.725 193.842 168.678C194.669 167.674 195.229 166.478 195.47 165.2C195.763 163.606 195.535 161.959 194.82 160.504C194.62 160.096 194.385 159.707 194.116 159.34C194.021 159.36 193.927 159.384 193.835 159.412C194.54 160.346 195.015 161.434 195.219 162.587C195.402 163.667 195.341 164.775 195.042 165.829C194.742 166.882 194.211 167.856 193.487 168.678C193.446 168.725 193.404 168.772 193.361 168.818Z" fill="#BBCBC2"/>
<path d="M117.88 128.395H92.4081L92.1381 120.564C92.1264 120.224 92.1884 119.886 92.3199 119.573C92.4514 119.26 92.6491 118.979 92.8996 118.749C93.1501 118.52 93.4473 118.347 93.7708 118.244C94.0943 118.14 94.4364 118.108 94.7736 118.149L109.596 119.964H109.598C111.796 119.97 113.901 120.847 115.453 122.402C117.006 123.958 117.878 126.065 117.88 128.263V128.395Z" fill="#254C50"/>
<path d="M106.527 100.616H88.7619C88.5256 100.616 88.2917 100.662 88.0734 100.753C87.8551 100.843 87.6567 100.975 87.4897 101.142C87.3226 101.31 87.1901 101.508 87.0997 101.726C87.0093 101.944 86.9628 102.178 86.9629 102.415V120.18C86.9628 120.416 87.0093 120.65 87.0997 120.868C87.1901 121.087 87.3226 121.285 87.4897 121.452C87.6567 121.619 87.8551 121.752 88.0734 121.842C88.2917 121.932 88.5256 121.979 88.7619 121.979H106.527C106.763 121.979 106.997 121.932 107.216 121.842C107.434 121.752 107.632 121.619 107.799 121.452C107.966 121.285 108.099 121.087 108.189 120.868C108.28 120.65 108.326 120.416 108.326 120.18V102.415C108.326 102.178 108.28 101.944 108.189 101.726C108.099 101.508 107.966 101.31 107.799 101.142C107.632 100.975 107.434 100.843 107.216 100.753C106.997 100.662 106.763 100.616 106.527 100.616Z" fill="#CCCCCC"/>
<path d="M102.526 113.9L94.138 115.533C93.6405 115.629 93.125 115.524 92.7048 115.241C92.2846 114.958 91.9939 114.52 91.8964 114.022L91.2517 110.711C91.1554 110.214 91.2603 109.698 91.5436 109.278C91.8268 108.858 92.2652 108.567 92.7625 108.47L101.15 106.836C101.648 106.74 102.163 106.845 102.583 107.128C103.004 107.412 103.294 107.85 103.392 108.347L104.037 111.658C104.133 112.156 104.028 112.671 103.745 113.091C103.461 113.512 103.023 113.802 102.526 113.9Z" fill="#3F3D56"/>
<path d="M100.847 109.988L94.4459 111.235C94.3288 111.257 94.2075 111.233 94.1085 111.166C94.0096 111.099 93.9413 110.996 93.9185 110.879C93.8956 110.762 93.9203 110.641 93.987 110.542C94.0536 110.443 94.1569 110.375 94.2739 110.352L100.675 109.105C100.792 109.082 100.913 109.107 101.012 109.174C101.111 109.24 101.18 109.344 101.202 109.461C101.225 109.578 101.201 109.699 101.134 109.798C101.067 109.897 100.964 109.965 100.847 109.988V109.988Z" fill="#BBCBC2"/>
<path d="M99.6045 111.834L96.2935 112.479C96.1765 112.502 96.0551 112.477 95.9562 112.41C95.8573 112.344 95.7889 112.24 95.7661 112.123C95.7433 112.006 95.768 111.885 95.8346 111.786C95.9013 111.687 96.0045 111.619 96.1216 111.596L99.4325 110.951C99.4905 110.94 99.5501 110.94 99.608 110.952C99.6659 110.964 99.7209 110.987 99.7699 111.02C99.8188 111.053 99.8608 111.095 99.8934 111.144C99.9261 111.193 99.9487 111.249 99.96 111.307C99.9712 111.365 99.971 111.424 99.9592 111.482C99.9475 111.54 99.9245 111.595 99.8914 111.644C99.8584 111.693 99.8161 111.735 99.7669 111.768C99.7176 111.8 99.6624 111.823 99.6045 111.834Z" fill="#BBCBC2"/>
<path d="M108.326 102.415V104.776H86.9629V102.415C86.9628 102.178 87.0093 101.944 87.0997 101.726C87.1901 101.508 87.3226 101.31 87.4897 101.142C87.6567 100.975 87.8551 100.843 88.0734 100.753C88.2917 100.662 88.5256 100.616 88.7619 100.616H106.527C106.763 100.616 106.997 100.662 107.216 100.753C107.434 100.843 107.632 100.975 107.799 101.142C107.966 101.31 108.099 101.508 108.189 101.726C108.28 101.944 108.326 102.178 108.326 102.415Z" fill="#B3B3B3"/>
<path d="M150.987 105.515C150.863 105.117 150.654 104.751 150.374 104.442C150.094 104.134 149.749 103.891 149.365 103.729C148.98 103.568 148.565 103.494 148.149 103.51C147.733 103.527 147.325 103.635 146.955 103.826L122.514 95.0574L121.438 101.163L145.8 107.863C146.163 108.463 146.733 108.91 147.403 109.118C148.074 109.327 148.797 109.282 149.436 108.993C150.075 108.703 150.586 108.189 150.872 107.549C151.158 106.908 151.199 106.184 150.987 105.515Z" fill="#FFB8B8"/>
<path opacity="0.2" d="M150.987 105.515C150.863 105.117 150.654 104.751 150.374 104.442C150.094 104.134 149.749 103.891 149.365 103.729C148.98 103.568 148.565 103.494 148.149 103.51C147.733 103.527 147.325 103.635 146.955 103.826L122.514 95.0574L121.438 101.163L145.8 107.863C146.163 108.463 146.733 108.91 147.403 109.118C148.074 109.327 148.797 109.282 149.436 108.993C150.075 108.703 150.586 108.189 150.872 107.549C151.158 106.908 151.199 106.184 150.987 105.515Z" fill="black"/>
<path d="M126.851 96.1698L124.543 102.199C124.478 102.371 124.376 102.526 124.245 102.655C124.114 102.783 123.956 102.882 123.783 102.945C123.611 103.007 123.426 103.031 123.243 103.016C123.06 103.001 122.883 102.946 122.723 102.856L117.113 99.6993C116.238 99.3583 115.533 98.6839 115.154 97.8241C114.774 96.9642 114.751 95.9891 115.09 95.1123C115.428 94.2356 116.101 93.5289 116.96 93.1472C117.818 92.7654 118.793 92.7397 119.671 93.0758L125.935 94.4649C126.114 94.5048 126.283 94.5828 126.429 94.6937C126.575 94.8045 126.696 94.9457 126.783 95.1075C126.87 95.2693 126.921 95.4479 126.933 95.6312C126.945 95.8145 126.917 95.9982 126.851 96.1698Z" fill="#254C50"/>
<path d="M152.91 111.098L144.152 115.079L145.302 119.407C147.522 127.766 148.112 136.475 147.038 145.056L153.441 146.394L158.748 132.859L156.891 117.467L152.91 111.098Z" fill="#254C50"/>
<path d="M170.093 131.134C164.339 131.134 159.649 135.317 159.422 140.555H180.763C180.536 135.317 175.847 131.134 170.093 131.134Z" fill="#3F3D56"/>
<path d="M165.614 132.037C165.314 108.392 151.848 110.567 151.848 110.567C151.848 110.567 152.1 117.927 152.221 118.156C160.802 134.392 146.64 153.426 128.613 149.925C128.273 149.859 127.947 149.792 127.633 149.724C125.349 149.247 123.332 147.918 121.993 146.007C120.654 144.096 120.093 141.746 120.425 139.437C122.201 125.176 113.368 125.429 113.368 125.429H100.453L93.746 119.392C93.5092 119.179 93.2239 119.028 92.9149 118.95C92.6059 118.873 92.2827 118.872 91.9735 118.949C91.6643 119.025 91.3786 119.176 91.1413 119.389C90.904 119.601 90.7223 119.869 90.6122 120.168L89.7493 122.51C89.7493 122.51 77.0111 123.836 78.0726 136.309H82.0108C82.0013 136.664 82.0155 137.018 82.0533 137.371L111.444 137.132C113.167 137.118 114.688 138.514 114.695 140.237C114.697 140.656 114.614 141.072 114.451 141.458C114.289 141.845 114.05 142.195 113.749 142.487C113.448 142.779 113.092 143.008 112.7 143.159C112.309 143.31 111.891 143.381 111.472 143.367L106.734 143.209C105.274 149.711 108.857 154.09 112.804 156.843C116.521 159.398 120.931 160.752 125.441 160.724H138.314C155.033 160.724 157.952 146.659 157.952 146.659C166.71 142.944 165.614 132.037 165.614 132.037Z" fill="#3F3D56"/>
<path d="M169.295 168.42C177.539 168.42 184.222 161.737 184.222 153.493C184.222 145.248 177.539 138.565 169.295 138.565C161.051 138.565 154.367 145.248 154.367 153.493C154.367 161.737 161.051 168.42 169.295 168.42Z" fill="#3F3D56"/>
<path d="M169.297 157.151C171.318 157.151 172.956 155.513 172.956 153.493C172.956 151.472 171.318 149.834 169.297 149.834C167.277 149.834 165.639 151.472 165.639 153.493C165.639 155.513 167.277 157.151 169.297 157.151Z" fill="#BBCBC2"/>
<path d="M93.9294 168.42C103.42 168.42 111.113 160.727 111.113 151.237C111.113 141.747 103.42 134.053 93.9294 134.053C84.4393 134.053 76.7461 141.747 76.7461 151.237C76.7461 160.727 84.4393 168.42 93.9294 168.42Z" fill="#3F3D56"/>
<path d="M93.9304 155.449C96.2564 155.449 98.142 153.563 98.142 151.237C98.142 148.911 96.2564 147.025 93.9304 147.025C91.6043 147.025 89.7188 148.911 89.7188 151.237C89.7188 153.563 91.6043 155.449 93.9304 155.449Z" fill="#BBCBC2"/>
<path d="M144.177 116.255L141.026 107.697C140.861 107.251 140.787 106.777 140.806 106.302C140.825 105.827 140.937 105.36 141.136 104.929C141.336 104.497 141.618 104.109 141.967 103.787C142.316 103.464 142.726 103.214 143.172 103.05L152.205 99.7241C152.99 99.4351 153.824 99.3035 154.66 99.3368C155.495 99.3702 156.316 99.5678 157.076 99.9184C157.835 100.269 158.518 100.766 159.085 101.38C159.652 101.995 160.093 102.715 160.382 103.5C160.643 104.204 160.776 104.949 160.775 105.7C160.772 106.654 160.556 107.595 160.143 108.455C159.731 109.315 159.132 110.072 158.39 110.671C157.854 111.101 157.252 111.44 156.607 111.676L144.177 116.255Z" fill="#3F3D56"/>
<path d="M160.643 105.7C160.642 106.635 160.432 107.557 160.028 108.399C159.624 109.241 159.036 109.982 158.307 110.567C157.19 110.273 156.15 109.738 155.26 109.001C154.37 108.264 153.652 107.342 153.154 106.299C152.657 105.256 152.392 104.117 152.379 102.961C152.367 101.806 152.605 100.661 153.08 99.6073C153.99 99.4094 154.933 99.4178 155.839 99.632C156.746 99.8462 157.593 100.261 158.318 100.845C159.044 101.429 159.629 102.169 160.031 103.009C160.434 103.849 160.643 104.769 160.643 105.7Z" fill="#254C50"/>
<path d="M80.3286 138.034C82.3805 138.034 84.0439 136.014 84.0439 133.523C84.0439 131.031 82.3805 129.011 80.3286 129.011C78.2767 129.011 76.6133 131.031 76.6133 133.523C76.6133 136.014 78.2767 138.034 80.3286 138.034Z" fill="#254C50"/>
<path d="M129.44 149.492H132.694L134.242 141.054L129.439 141.054L129.44 149.492Z" fill="#FFB8B8"/>
<path d="M128.609 148.43L135.017 148.43H135.017C135.553 148.43 136.084 148.536 136.58 148.741C137.075 148.946 137.525 149.247 137.904 149.626C138.283 150.005 138.584 150.455 138.789 150.951C138.995 151.446 139.1 151.977 139.1 152.513V152.646L128.61 152.646L128.609 148.43Z" fill="#2F2E41"/>
<path d="M133.217 146.029C133.179 146.029 133.141 146.027 133.103 146.023L128.6 145.696C128.418 145.679 128.242 145.62 128.086 145.525C127.931 145.429 127.799 145.299 127.701 145.144C127.603 144.99 127.542 144.815 127.523 144.633C127.504 144.451 127.526 144.267 127.589 144.096L133.615 130.557C133.658 130.437 133.676 130.308 133.667 130.18C133.658 130.053 133.623 129.928 133.563 129.815C133.504 129.7 133.421 129.599 133.32 129.518C133.218 129.438 133.101 129.38 132.976 129.348C130.143 128.607 122.873 126.635 116.579 124.327C113.883 123.338 112.185 121.91 111.532 120.08C110.671 117.669 111.945 115.47 111.999 115.377L112.042 115.305L117.964 115.843L124.384 116.39L138.452 123.934C139.631 124.571 140.527 125.629 140.96 126.897C141.394 128.165 141.334 129.55 140.793 130.776L134.307 145.321C134.213 145.532 134.06 145.711 133.867 145.836C133.673 145.962 133.448 146.029 133.217 146.029Z" fill="#2F2E41"/>
<path d="M118.993 89.059C122.592 89.059 125.511 86.1407 125.511 82.541C125.511 78.9412 122.592 76.0229 118.993 76.0229C115.393 76.0229 112.475 78.9412 112.475 82.541C112.475 86.1407 115.393 89.059 118.993 89.059Z" fill="#FFB8B8"/>
<path d="M127.583 150.288H130.836L132.384 141.85L127.582 141.85L127.583 150.288Z" fill="#FFB8B8"/>
<path d="M126.75 149.226L133.157 149.226H133.158C133.694 149.226 134.225 149.332 134.72 149.537C135.216 149.742 135.666 150.043 136.045 150.422C136.424 150.801 136.725 151.251 136.93 151.747C137.135 152.242 137.241 152.773 137.241 153.309V153.442L126.75 153.442L126.75 149.226Z" fill="#2F2E41"/>
<path d="M131.36 146.825C131.322 146.825 131.284 146.823 131.245 146.82L126.743 146.492C126.561 146.475 126.385 146.416 126.229 146.321C126.073 146.225 125.941 146.095 125.844 145.94C125.746 145.786 125.685 145.611 125.666 145.429C125.646 145.247 125.669 145.063 125.732 144.892L131.758 131.353C131.801 131.233 131.818 131.104 131.809 130.977C131.8 130.849 131.765 130.724 131.706 130.611C131.646 130.496 131.563 130.395 131.462 130.314C131.361 130.234 131.244 130.176 131.119 130.144C128.285 129.403 121.015 127.431 114.722 125.123C112.026 124.135 110.328 122.706 109.675 120.877C108.814 118.465 110.087 116.266 110.142 116.174L110.185 116.101L116.107 116.64L122.526 117.186L136.595 124.73C137.774 125.367 138.669 126.425 139.103 127.694C139.537 128.962 139.477 130.347 138.935 131.572L132.449 146.117C132.355 146.328 132.203 146.507 132.009 146.632C131.816 146.758 131.59 146.825 131.36 146.825Z" fill="#2F2E41"/>
<path d="M121.004 92.7549L114.104 90.3665C114.104 90.3665 109.772 93.6943 111.853 101.95C112.94 106.21 112.623 110.707 110.951 114.773C110.75 115.276 110.517 115.766 110.256 116.241C110.256 116.241 117.952 125.529 125.117 118.629L122.331 105.228C122.331 105.228 126.709 96.3375 121.004 92.7549Z" fill="#254C50"/>
<path d="M119.803 89.2806C118.875 87.8921 118.143 85.9667 119.164 84.6455C120.172 83.3414 122.161 83.5335 123.705 82.9565C125.856 82.1527 127.103 79.6261 126.714 77.3634C126.325 75.1007 124.509 73.225 122.345 72.4575C120.181 71.69 117.741 71.9396 115.622 72.8234C113.013 73.9114 110.776 76.016 109.837 78.682C108.899 81.348 109.401 84.549 111.347 86.5982C113.434 88.7951 116.709 89.3806 119.739 89.3451" fill="#2F2E41"/>
<path d="M113.739 77.4359C112.57 78.3876 110.787 77.9649 109.532 77.1297C108.277 76.2946 107.259 75.1053 105.901 74.4505C103.508 73.2961 100.614 74.0635 98.2844 75.3422C95.9549 76.6209 93.8899 78.3875 91.4292 79.3909C88.9686 80.3944 85.8287 80.444 83.9655 78.5492C83.507 79.8777 83.4695 81.3152 83.8581 82.6658C84.2468 84.0163 85.0427 85.214 86.1372 86.0955C87.2317 86.9771 88.5715 87.4994 89.9739 87.5913C91.3762 87.6833 92.7728 87.3403 93.973 86.6092C96.6691 84.9669 98.1583 81.5235 101.182 80.6171C102.856 80.1155 104.652 80.5195 106.344 80.9571C108.035 81.3946 109.798 81.8674 111.505 81.4949C113.212 81.1224 114.808 79.5887 114.591 77.8553L113.739 77.4359Z" fill="#2F2E41"/>
<path d="M150.661 105.25C150.49 104.87 150.237 104.532 149.921 104.261C149.605 103.989 149.233 103.79 148.831 103.678C148.43 103.565 148.009 103.542 147.598 103.61C147.187 103.678 146.795 103.836 146.451 104.071L121.116 98.3848L120.801 104.577L145.804 108.219C146.238 108.77 146.859 109.143 147.55 109.267C148.241 109.391 148.953 109.258 149.551 108.892C150.15 108.526 150.594 107.953 150.798 107.282C151.003 106.61 150.954 105.887 150.661 105.25Z" fill="#FFB8B8"/>
<path d="M125.559 98.9535L124.012 105.222C123.968 105.4 123.886 105.567 123.772 105.711C123.658 105.855 123.514 105.972 123.35 106.055C123.186 106.138 123.007 106.185 122.823 106.193C122.64 106.2 122.457 106.168 122.287 106.098L116.331 103.658C115.419 103.428 114.636 102.846 114.153 102.039C113.67 101.232 113.526 100.267 113.754 99.3547C113.982 98.4425 114.563 97.658 115.368 97.1732C116.174 96.6885 117.139 96.5431 118.052 96.7691L124.439 97.3748C124.622 97.3922 124.799 97.4488 124.958 97.5408C125.117 97.6327 125.254 97.7579 125.36 97.9077C125.467 98.0575 125.539 98.2285 125.574 98.409C125.608 98.5895 125.603 98.7752 125.559 98.9535V98.9535Z" fill="#254C50"/>
<path d="M147.735 110.169C148.761 110.169 149.592 109.338 149.592 108.312C149.592 107.286 148.761 106.454 147.735 106.454C146.709 106.454 145.877 107.286 145.877 108.312C145.877 109.338 146.709 110.169 147.735 110.169Z" fill="#254C50"/>
<path d="M230 168.553C230 168.623 229.972 168.691 229.922 168.74C229.872 168.79 229.805 168.818 229.735 168.818H10.2654C10.195 168.818 10.1275 168.79 10.0777 168.741C10.028 168.691 10 168.623 10 168.553C10 168.483 10.028 168.415 10.0777 168.365C10.1275 168.316 10.195 168.288 10.2654 168.288H229.735C229.805 168.288 229.872 168.316 229.922 168.366C229.972 168.415 230 168.483 230 168.553Z" fill="#3F3D56"/>
</svg>
