<svg width="240" height="240" viewBox="0 0 240 240" fill="none" xmlns="http://www.w3.org/2000/svg">
<rect width="240" height="240" rx="20" fill="#FAB44D" fill-opacity="0.3"/>
<path opacity="0.1" d="M224.671 150.877C224.474 151.021 224.292 151.161 224.099 151.297C223.386 151.801 222.64 152.256 221.866 152.659C217.809 154.798 212.808 155.843 207.937 156.552C197.012 158.145 185.858 158.455 174.752 158.758C144.743 159.582 114.662 160.404 84.7257 158.506C72.898 157.757 60.8101 156.503 50.0922 152.659C48.5559 152.11 47.0499 151.504 45.5741 150.842C42.5876 149.499 39.7193 147.865 37.3341 145.913C35.0928 144.084 33.2752 141.983 32.1891 139.593C29.9241 134.618 31.1226 129.029 33.7089 124.152C34.7831 122.179 35.9944 120.284 37.3341 118.481C39.331 115.735 41.5329 113.068 43.5417 110.324C50.6895 100.57 55.3536 88.2298 48.7557 78.2255C46.8593 75.3514 44.1192 72.8281 42.5738 69.8279C40.6025 65.9898 40.7543 61.7279 41.3811 57.5882C41.4626 57.0625 41.5487 56.5421 41.6394 56.0269C42.7098 49.8884 44.7244 43.2747 50.9359 39.4425C57.3879 35.4606 66.5504 35.6616 74.5578 37.077C87.0104 39.3006 98.497 43.9292 110.106 48.1083C121.715 52.2874 133.86 56.1058 146.618 56.5158C157.884 56.8785 171.024 54.1641 178.501 47.1089C185.764 40.2567 199.415 39.7343 209.253 43.874C216.007 46.7146 221.046 51.832 223.171 57.5882C223.601 58.7438 223.911 59.9408 224.095 61.1601C224.265 62.2745 224.321 63.4034 224.261 64.5291C224.231 65.085 224.174 65.6349 224.095 66.179C222.451 77.5375 210.618 86.497 203.424 96.6432C199.91 101.599 197.428 107.552 199.844 112.896C203.531 121.04 216.35 123.936 224.091 129.995C225.548 131.098 226.831 132.414 227.896 133.898C231.651 139.292 230.265 146.576 224.671 150.877Z" fill="#254C50"/>
<path d="M60.8236 100.042C60.8236 100.042 51.7557 83.9719 38.0908 79.3433C32.3563 77.3996 27.3513 73.7449 23.9291 68.7496C22.309 66.378 20.9101 63.8626 19.75 61.2351" stroke="#535461" stroke-width="2" stroke-miterlimit="10"/>
<path d="M11.1578 58.2605C12.7151 59.7646 19.9655 61.3416 19.9655 61.3416C19.9655 61.3416 18.1914 54.1425 16.6301 52.6305C15.8796 51.9198 14.8793 51.5335 13.846 51.5553C12.8126 51.5771 11.8295 52.0052 11.1096 52.7469C10.3897 53.4885 9.99112 54.484 10.0001 55.5175C10.0092 56.551 10.4251 57.5394 11.1578 58.2684V58.2605Z" fill="#254C50"/>
<path d="M15.2601 71.2885C17.3871 71.7103 24.328 69.0826 24.328 69.0826C24.328 69.0826 18.9168 64.0046 16.7878 63.5827C15.776 63.4046 14.7346 63.6298 13.8869 64.2103C13.0392 64.7907 12.4526 65.6801 12.2528 66.6879C12.053 67.6957 12.2559 68.7417 12.818 69.6016C13.3802 70.4616 14.2568 71.0671 15.2601 71.2885Z" fill="#254C50"/>
<path d="M30.1932 85.3911C32.2433 84.6814 36.8955 78.9115 36.8955 78.9115C36.8955 78.9115 29.6649 77.2576 27.6167 77.9672C27.1142 78.1234 26.6481 78.3789 26.2462 78.7186C25.8443 79.0583 25.5147 79.4752 25.277 79.9448C25.0394 80.4143 24.8984 80.9267 24.8626 81.4518C24.8268 81.9768 24.8968 82.5036 25.0686 83.0011C25.2403 83.4985 25.5102 83.9564 25.8622 84.3475C26.2143 84.7387 26.6413 85.0551 27.118 85.278C27.5947 85.5009 28.1113 85.6258 28.6372 85.6452C29.1631 85.6646 29.6875 85.5782 30.1794 85.3911H30.1932Z" fill="#254C50"/>
<path d="M43.8929 93.5108C46.0337 93.156 51.6006 88.2574 51.6006 88.2574C51.6006 88.2574 44.7543 85.4049 42.6135 85.7578C41.5854 85.9274 40.6668 86.4986 40.0597 87.3455C39.4527 88.1925 39.207 89.2459 39.3767 90.274C39.5463 91.3021 40.1174 92.2207 40.9644 92.8277C41.8113 93.4348 42.8647 93.6805 43.8929 93.5108Z" fill="#254C50"/>
<path d="M30.3683 63.4567C30.3683 65.6251 26.4454 71.9194 26.4454 71.9194C26.4454 71.9194 22.5147 65.629 22.5127 63.4606C22.501 62.9374 22.5939 62.4171 22.786 61.9303C22.9782 61.4435 23.2656 61 23.6315 60.6258C23.9974 60.2517 24.4343 59.9544 24.9167 59.7514C25.3991 59.5484 25.9171 59.4438 26.4405 59.4438C26.9638 59.4438 27.4819 59.5484 27.9643 59.7514C28.4466 59.9544 28.8836 60.2517 29.2495 60.6258C29.6154 61 29.9028 61.4435 30.0949 61.9303C30.287 62.4171 30.38 62.9374 30.3683 63.4606V63.4567Z" fill="#254C50"/>
<path d="M46.2712 73.1692C45.6227 75.2391 39.9947 80.0687 39.9947 80.0687C39.9947 80.0687 38.1259 72.8834 38.7666 70.8037C39.1109 69.8515 39.8096 69.069 40.7169 68.6194C41.6242 68.1698 42.67 68.0879 43.6362 68.3908C44.6024 68.6936 45.4144 69.3578 45.9028 70.2448C46.3911 71.1318 46.5182 72.1731 46.2574 73.1515L46.2712 73.1692Z" fill="#254C50"/>
<path d="M60.4336 84.7111C60.1458 86.8617 55.4147 92.5725 55.4147 92.5725C55.4147 92.5725 52.3592 85.815 52.6549 83.6643C52.808 82.6442 53.3562 81.7252 54.181 81.1058C55.0059 80.4864 56.0413 80.2162 57.0636 80.3536C58.086 80.4911 59.0132 81.0251 59.6452 81.8403C60.2772 82.6556 60.5632 83.6867 60.4415 84.7111H60.4336Z" fill="#254C50"/>
<path opacity="0.25" d="M11.1578 58.2605C12.7151 59.7646 19.9655 61.3416 19.9655 61.3416C19.9655 61.3416 18.1914 54.1425 16.6301 52.6305C15.8796 51.9198 14.8793 51.5335 13.846 51.5553C12.8126 51.5771 11.8295 52.0052 11.1096 52.7469C10.3897 53.4885 9.99112 54.484 10.0001 55.5175C10.0092 56.551 10.4251 57.5394 11.1578 58.2684V58.2605Z" fill="black"/>
<path opacity="0.25" d="M15.2601 71.2885C17.3871 71.7103 24.328 69.0826 24.328 69.0826C24.328 69.0826 18.9168 64.0046 16.7878 63.5827C15.776 63.4046 14.7346 63.6298 13.8869 64.2103C13.0392 64.7907 12.4526 65.6801 12.2528 66.6879C12.053 67.6957 12.2559 68.7417 12.818 69.6016C13.3802 70.4616 14.2568 71.0671 15.2601 71.2885Z" fill="black"/>
<path opacity="0.25" d="M30.1932 85.3911C32.2433 84.6814 36.8955 78.9115 36.8955 78.9115C36.8955 78.9115 29.6649 77.2576 27.6167 77.9672C27.1142 78.1234 26.6481 78.3789 26.2462 78.7186C25.8443 79.0583 25.5147 79.4752 25.277 79.9448C25.0394 80.4143 24.8984 80.9267 24.8626 81.4518C24.8268 81.9768 24.8968 82.5036 25.0686 83.0011C25.2403 83.4985 25.5102 83.9564 25.8622 84.3475C26.2143 84.7387 26.6413 85.0551 27.118 85.278C27.5947 85.5009 28.1113 85.6258 28.6372 85.6452C29.1631 85.6646 29.6875 85.5782 30.1794 85.3911H30.1932Z" fill="black"/>
<path opacity="0.25" d="M43.8929 93.5108C46.0337 93.156 51.6006 88.2574 51.6006 88.2574C51.6006 88.2574 44.7543 85.4049 42.6135 85.7578C41.5854 85.9274 40.6668 86.4986 40.0597 87.3455C39.4527 88.1925 39.207 89.2459 39.3767 90.274C39.5463 91.3021 40.1174 92.2207 40.9644 92.8277C41.8113 93.4348 42.8647 93.6805 43.8929 93.5108Z" fill="black"/>
<path opacity="0.25" d="M30.3683 63.4567C30.3683 65.6251 26.4454 71.9194 26.4454 71.9194C26.4454 71.9194 22.5147 65.629 22.5127 63.4606C22.501 62.9374 22.5939 62.4171 22.786 61.9303C22.9782 61.4435 23.2656 61 23.6315 60.6258C23.9974 60.2517 24.4343 59.9544 24.9167 59.7514C25.3991 59.5484 25.9171 59.4438 26.4405 59.4438C26.9638 59.4438 27.4819 59.5484 27.9643 59.7514C28.4466 59.9544 28.8836 60.2517 29.2495 60.6258C29.6154 61 29.9028 61.4435 30.0949 61.9303C30.287 62.4171 30.38 62.9374 30.3683 63.4606V63.4567Z" fill="black"/>
<path opacity="0.25" d="M46.2712 73.1692C45.6227 75.2391 39.9947 80.0687 39.9947 80.0687C39.9947 80.0687 38.1259 72.8834 38.7666 70.8037C39.1109 69.8515 39.8096 69.069 40.7169 68.6194C41.6242 68.1698 42.67 68.0879 43.6362 68.3908C44.6024 68.6936 45.4144 69.3578 45.9028 70.2448C46.3911 71.1318 46.5182 72.1731 46.2574 73.1515L46.2712 73.1692Z" fill="black"/>
<path opacity="0.25" d="M60.4336 84.7111C60.1458 86.8617 55.4147 92.5725 55.4147 92.5725C55.4147 92.5725 52.3592 85.815 52.6549 83.6643C52.808 82.6442 53.3562 81.7252 54.181 81.1058C55.0059 80.4864 56.0413 80.2162 57.0636 80.3536C58.086 80.4911 59.0132 81.0251 59.6452 81.8403C60.2772 82.6556 60.5632 83.6867 60.4415 84.7111H60.4336Z" fill="black"/>
<path d="M60.3007 99.7223C60.3007 99.7223 58.5265 81.3539 47.9053 71.5842C43.4521 67.484 40.3572 62.1221 39.2513 56.1609C38.7322 53.3355 38.4736 50.4684 38.4786 47.5957" stroke="#535461" stroke-width="2" stroke-miterlimit="10"/>
<path d="M31.8276 41.4001C32.6398 43.4127 38.6345 47.7791 38.6345 47.7791C38.6345 47.7791 39.9256 40.4755 39.1154 38.4629C38.7259 37.4957 37.9682 36.7228 37.0088 36.3143C36.0495 35.9058 34.9672 35.8951 34 36.2846C33.0328 36.6741 32.2599 37.4319 31.8514 38.3912C31.4429 39.3505 31.4322 40.4329 31.8217 41.4001H31.8276Z" fill="#254C50"/>
<path d="M30.2896 54.9724C32.0638 56.2202 39.4699 56.6283 39.4699 56.6283C39.4699 56.6283 36.5977 49.7958 34.8236 48.548C33.9717 47.9468 32.9158 47.7086 31.8882 47.8859C30.8607 48.0631 29.9456 48.6413 29.3444 49.4932C28.7432 50.3452 28.505 51.4011 28.6822 52.4286C28.8595 53.4561 29.4377 54.3712 30.2896 54.9724Z" fill="#254C50"/>
<path d="M38.2371 73.9123C40.4055 74.0956 46.9974 70.707 46.9974 70.707C46.9974 70.707 41.058 66.2657 38.8955 66.0843C38.3752 66.0289 37.849 66.078 37.3479 66.2288C36.8469 66.3795 36.3809 66.6288 35.9775 66.962C35.5741 67.2952 35.2413 67.7057 34.9987 68.1693C34.756 68.6329 34.6085 69.1403 34.5646 69.6617C34.5207 70.1832 34.5815 70.7081 34.7433 71.2057C34.9051 71.7033 35.1646 72.1636 35.5067 72.5596C35.8488 72.9555 36.2665 73.2791 36.7354 73.5114C37.2043 73.7437 37.7148 73.88 38.2371 73.9123Z" fill="#254C50"/>
<path d="M47.4704 86.8912C49.5718 87.4353 56.6467 85.2117 56.6467 85.2117C56.6467 85.2117 51.5431 79.8301 49.4437 79.286C48.4415 79.0432 47.3841 79.2041 46.4996 79.7341C45.615 80.264 44.9743 81.1204 44.7155 82.1185C44.4568 83.1167 44.6009 84.1765 45.1166 85.0694C45.6324 85.9623 46.4785 86.6166 47.4724 86.8912H47.4704Z" fill="#254C50"/>
<path d="M47.2821 53.9355C46.4049 55.9186 40.2663 60.08 40.2663 60.08C40.2663 60.08 39.2215 52.7389 40.0988 50.7539C40.3019 50.2736 40.5987 49.8386 40.9717 49.4742C41.3447 49.1098 41.7865 48.8233 42.2714 48.6314C42.7563 48.4395 43.2745 48.346 43.7959 48.3565C44.3173 48.367 44.8314 48.4811 45.3082 48.6923C45.785 48.9035 46.2149 49.2075 46.573 49.5865C46.9311 49.9656 47.2102 50.4122 47.3939 50.9002C47.5777 51.3883 47.6624 51.908 47.6432 52.4291C47.624 52.9502 47.5013 53.4623 47.2821 53.9355Z" fill="#254C50"/>
<path d="M57.8891 69.2482C56.458 70.8784 49.3555 73.0133 49.3555 73.0133C49.3555 73.0133 50.554 65.696 51.9871 64.0657C52.3274 63.6782 52.7407 63.3615 53.2034 63.1336C53.6661 62.9058 54.1691 62.7714 54.6837 62.738C55.1984 62.7046 55.7146 62.7729 56.2028 62.939C56.6911 63.105 57.1418 63.3657 57.5294 63.7059C57.9169 64.0462 58.2336 64.4595 58.4614 64.9222C58.6892 65.3849 58.8237 65.8879 58.8571 66.4026C58.8905 66.9172 58.8222 67.4334 58.6561 67.9217C58.49 68.4099 58.2294 68.8607 57.8891 69.2482Z" fill="#254C50"/>
<path d="M66.1697 85.5487C65.0342 87.3978 58.395 90.7016 58.395 90.7016C58.395 90.7016 58.3398 83.2857 59.4752 81.4366C60.0205 80.5478 60.8966 79.9121 61.9106 79.6692C62.9247 79.4263 63.9937 79.5962 64.8824 80.1415C65.7712 80.6868 66.407 81.5628 66.6499 82.5769C66.8928 83.5909 66.7229 84.6599 66.1776 85.5487H66.1697Z" fill="#254C50"/>
<path opacity="0.1" d="M90.4271 203.897C102.569 203.897 112.413 202.615 112.413 201.034C112.413 199.454 102.569 198.172 90.4271 198.172C78.2847 198.172 68.4414 199.454 68.4414 201.034C68.4414 202.615 78.2847 203.897 90.4271 203.897Z" fill="#254C50"/>
<path opacity="0.1" d="M46.0185 201.957C49.7071 201.957 52.6972 201.445 52.6972 200.814C52.6972 200.182 49.7071 199.67 46.0185 199.67C42.33 199.67 39.3398 200.182 39.3398 200.814C39.3398 201.445 42.33 201.957 46.0185 201.957Z" fill="#254C50"/>
<path d="M47.4696 188.083C47.4696 188.083 48.5518 189.5 46.9689 191.631C45.3859 193.762 44.0809 195.574 44.6033 196.908C44.6033 196.908 46.9905 192.936 48.9401 192.881C50.8897 192.826 49.6104 190.472 47.4696 188.083Z" fill="#254C50"/>
<path opacity="0.1" d="M47.4683 188.083C47.5628 188.22 47.6372 188.37 47.6891 188.529C49.5854 190.756 50.5967 192.836 48.7733 192.887C47.076 192.936 45.0377 195.972 44.5508 196.739C44.5669 196.798 44.5859 196.857 44.608 196.914C44.608 196.914 46.9952 192.942 48.9448 192.887C50.8944 192.832 49.6091 190.472 47.4683 188.083Z" fill="black"/>
<path d="M49.4808 189.889C49.4808 190.388 49.4256 190.792 49.3566 190.792C49.2876 190.792 49.2305 190.397 49.2305 189.889C49.2305 189.38 49.3014 189.625 49.3704 189.625C49.4394 189.625 49.4808 189.39 49.4808 189.889Z" fill="#FFD037"/>
<path d="M50.1743 190.484C49.7366 190.722 49.3542 190.866 49.3207 190.805C49.2872 190.744 49.6164 190.502 50.054 190.263C50.4916 190.025 50.3182 190.198 50.3517 190.263C50.3852 190.328 50.6119 190.245 50.1743 190.484Z" fill="#FFD037"/>
<path d="M41.7501 188.083C41.7501 188.083 40.6679 189.5 42.2508 191.631C43.8337 193.762 45.1387 195.574 44.6163 196.908C44.6163 196.908 42.2291 192.936 40.2795 192.881C38.3299 192.826 39.6132 190.472 41.7501 188.083Z" fill="#254C50"/>
<path opacity="0.1" d="M41.7485 188.083C41.654 188.22 41.5796 188.37 41.5277 188.529C39.6314 190.756 38.6201 192.836 40.4435 192.887C42.1428 192.936 44.1791 195.972 44.666 196.739C44.6508 196.799 44.6317 196.857 44.6088 196.914C44.6088 196.914 42.2216 192.942 40.272 192.887C38.3224 192.832 39.6116 190.472 41.7485 188.083Z" fill="black"/>
<path d="M39.7363 189.889C39.7363 190.388 39.7915 190.792 39.8605 190.792C39.9295 190.792 39.9867 190.397 39.9867 189.889C39.9867 189.38 39.9157 189.625 39.8467 189.625C39.7777 189.625 39.7363 189.39 39.7363 189.889Z" fill="#FFD037"/>
<path d="M39.0461 190.484C39.4837 190.722 39.8641 190.866 39.8977 190.805C39.9312 190.744 39.602 190.502 39.1643 190.263C38.7267 190.025 38.9002 190.198 38.8667 190.263C38.8332 190.328 38.6084 190.245 39.0461 190.484Z" fill="#FFD037"/>
<path d="M40.0801 196.729C40.0801 196.729 43.108 196.635 44.0226 195.986C44.9373 195.337 48.6788 194.559 48.9055 195.602C49.1322 196.644 53.4552 200.784 50.037 200.812C46.6188 200.839 42.0947 200.279 41.184 199.725C40.2733 199.172 40.0801 196.729 40.0801 196.729Z" fill="#A8A8A8"/>
<path opacity="0.2" d="M50.0962 200.449C46.678 200.476 42.1539 199.917 41.2431 199.363C40.5492 198.939 40.2733 197.423 40.1806 196.725H40.0801C40.0801 196.725 40.2772 199.166 41.182 199.721C42.0868 200.277 46.6168 200.835 50.035 200.808C51.0207 200.808 51.3637 200.449 51.344 199.928C51.208 200.248 50.8314 200.443 50.0962 200.449Z" fill="black"/>
<path d="M141.195 196.613C141.195 196.613 132.861 196.11 133.844 201.951C133.844 201.951 133.647 202.982 134.584 203.451C134.584 203.451 134.599 203.019 135.439 203.165C135.738 203.216 136.042 203.23 136.344 203.209C136.753 203.182 137.143 203.021 137.452 202.751C137.452 202.751 139.794 201.785 140.704 197.955C140.704 197.955 141.379 197.119 141.353 196.904L139.945 197.496C139.945 197.496 140.426 198.511 140.048 199.355C140.048 199.355 140.003 197.533 139.733 197.581C139.677 197.581 139.001 197.931 139.001 197.931C139.001 197.931 139.829 199.706 139.198 200.983C139.198 200.983 139.435 198.815 138.737 198.06L137.751 198.637C137.751 198.637 138.717 200.463 138.063 201.953C138.063 201.953 138.23 199.668 137.544 198.777L136.648 199.477C136.648 199.477 137.554 201.277 137 202.513C137 202.513 136.929 199.853 136.452 199.652C136.452 199.652 135.664 200.344 135.548 200.638C135.548 200.638 136.169 201.943 135.784 202.633C135.784 202.633 135.548 200.859 135.352 200.859C135.352 200.859 134.564 202.042 134.489 202.83C134.489 202.83 134.524 201.633 135.163 200.739C134.712 200.824 134.296 201.04 133.967 201.359C133.967 201.359 134.089 200.53 135.346 200.457C135.346 200.457 135.993 199.566 136.167 199.512C136.167 199.512 134.905 199.406 134.14 199.745C134.14 199.745 134.812 198.956 136.397 199.317L137.282 198.596C137.282 198.596 135.622 198.367 134.917 198.619C134.917 198.619 135.729 197.926 137.521 198.422L138.487 197.847C138.487 197.847 137.069 197.541 136.226 197.65C136.226 197.65 137.117 197.169 138.769 197.689L139.459 197.379C139.459 197.379 138.42 197.182 138.116 197.145C137.813 197.107 137.797 197.029 137.797 197.029C138.454 196.919 139.129 196.994 139.746 197.245C139.746 197.245 141.221 196.705 141.195 196.613Z" fill="#254C50"/>
<path opacity="0.1" d="M135.455 204.957C138.712 204.957 141.353 204.511 141.353 203.96C141.353 203.409 138.712 202.962 135.455 202.962C132.197 202.962 129.557 203.409 129.557 203.96C129.557 204.511 132.197 204.957 135.455 204.957Z" fill="#254C50"/>
<path d="M126.594 196.924C126.594 196.924 121.895 196.64 122.455 199.934C122.426 200.101 122.451 200.273 122.526 200.425C122.602 200.577 122.723 200.701 122.872 200.78C122.872 200.78 122.872 200.535 123.355 200.618C123.523 200.646 123.694 200.654 123.864 200.644C124.095 200.627 124.314 200.537 124.489 200.386C124.489 200.386 125.81 199.84 126.324 197.681C126.324 197.681 126.703 197.21 126.689 197.09L125.9 197.427C125.9 197.427 126.17 198 125.957 198.476C125.957 198.476 125.932 197.448 125.78 197.472C125.749 197.472 125.368 197.669 125.368 197.669C125.368 197.669 125.833 198.655 125.482 199.39C125.482 199.39 125.614 198.162 125.222 197.74L124.664 198.067C124.664 198.067 125.208 199.096 124.84 199.936C124.84 199.936 124.934 198.647 124.546 198.146L124.041 198.541C124.041 198.541 124.552 199.556 124.239 200.252C124.239 200.252 124.197 198.751 123.929 198.639C123.737 198.801 123.566 198.986 123.418 199.189C123.418 199.189 123.769 199.926 123.553 200.315C123.553 200.315 123.418 199.315 123.31 199.311C123.31 199.311 122.868 199.974 122.823 200.427C122.843 200.006 122.974 199.598 123.202 199.244C122.948 199.292 122.713 199.414 122.527 199.593C122.527 199.593 122.596 199.124 123.316 199.085C123.316 199.085 123.679 198.582 123.777 198.552C123.777 198.552 123.066 198.491 122.634 198.682C122.634 198.682 123.014 198.241 123.907 198.442L124.406 198.034C124.406 198.034 123.47 197.906 123.073 198.048C123.073 198.048 123.531 197.653 124.542 197.941L125.084 197.618C124.666 197.525 124.238 197.488 123.811 197.508C123.811 197.508 124.313 197.238 125.244 197.529L125.638 197.356C125.638 197.356 125.047 197.24 124.883 197.222C124.72 197.204 124.702 197.157 124.702 197.157C125.073 197.095 125.453 197.137 125.802 197.279C125.802 197.279 126.608 196.977 126.594 196.924Z" fill="#254C50"/>
<path opacity="0.1" d="M123.359 201.63C125.195 201.63 126.684 201.378 126.684 201.068C126.684 200.758 125.195 200.506 123.359 200.506C121.522 200.506 120.033 200.758 120.033 201.068C120.033 201.378 121.522 201.63 123.359 201.63Z" fill="#254C50"/>
<path d="M135.538 189.944C135.538 189.944 129.867 189.601 130.535 193.577C130.501 193.779 130.531 193.986 130.622 194.169C130.712 194.353 130.859 194.503 131.04 194.598C131.04 194.598 131.04 194.304 131.621 194.401C131.825 194.433 132.031 194.443 132.236 194.431C132.515 194.411 132.78 194.301 132.991 194.119C132.991 194.119 134.586 193.461 135.205 190.853C135.205 190.853 135.664 190.285 135.647 190.139L134.689 190.547C134.689 190.547 135.016 191.239 134.76 191.813C134.76 191.813 134.728 190.573 134.543 190.602C134.507 190.602 134.046 190.841 134.046 190.841C134.046 190.841 134.61 192.045 134.184 192.919C134.184 192.919 134.346 191.436 133.871 190.928L133.196 191.322C133.196 191.322 133.855 192.564 133.409 193.579C133.409 193.579 133.524 192.024 133.054 191.411L132.443 191.886C132.443 191.886 133.062 193.11 132.686 193.952C132.686 193.952 132.637 192.142 132.311 192.004C132.311 192.004 131.777 192.475 131.696 192.668C131.696 192.668 132.12 193.557 131.856 194.026C131.856 194.026 131.696 192.822 131.564 192.816C131.564 192.816 131.032 193.605 130.973 194.162C130.998 193.656 131.156 193.166 131.43 192.739C131.123 192.798 130.841 192.944 130.616 193.161C130.616 193.161 130.699 192.595 131.562 192.546C131.562 192.546 132.002 191.941 132.12 191.903C132.12 191.903 131.261 191.832 130.74 192.063C130.74 192.063 131.198 191.529 132.278 191.771L132.881 191.28C132.881 191.28 131.75 191.125 131.27 191.296C131.27 191.296 131.822 190.825 133.045 191.168L133.701 190.774C133.701 190.774 132.737 190.577 132.163 190.642C132.163 190.642 132.769 190.315 133.894 190.667L134.363 190.458C134.363 190.458 133.656 190.318 133.449 190.297C133.242 190.275 133.232 190.218 133.232 190.218C133.679 190.144 134.139 190.195 134.559 190.366C134.559 190.366 135.558 190.007 135.538 189.944Z" fill="#254C50"/>
<path opacity="0.1" d="M131.635 195.623C133.852 195.623 135.65 195.319 135.65 194.945C135.65 194.57 133.852 194.267 131.635 194.267C129.417 194.267 127.619 194.57 127.619 194.945C127.619 195.319 129.417 195.623 131.635 195.623Z" fill="#254C50"/>
<path d="M224.462 151.258V54.8364H36.9238V145.726C39.3189 147.725 42.199 149.407 45.2032 150.788C46.683 151.471 48.1943 152.094 49.7371 152.659H222.224L224.462 151.258Z" fill="url(#paint0_linear)"/>
<path d="M224.097 151.297V57.5962H37.332V145.929C39.7173 147.873 42.5855 149.507 45.572 150.857C47.0465 151.515 48.5526 152.12 50.0902 152.675H221.864L224.097 151.297Z" fill="white"/>
<path d="M224.099 55.1106H37.3359V60.0664H224.099V55.1106Z" fill="#5A5773"/>
<path d="M41.0665 58.8695C41.7741 58.8695 42.3478 58.2959 42.3478 57.5882C42.3478 56.8806 41.7741 56.3069 41.0665 56.3069C40.3588 56.3069 39.7852 56.8806 39.7852 57.5882C39.7852 58.2959 40.3588 58.8695 41.0665 58.8695Z" fill="white"/>
<path d="M44.5157 58.8695C45.2234 58.8695 45.797 58.2959 45.797 57.5882C45.797 56.8806 45.2234 56.3069 44.5157 56.3069C43.808 56.3069 43.2344 56.8806 43.2344 57.5882C43.2344 58.2959 43.808 58.8695 44.5157 58.8695Z" fill="white"/>
<path d="M47.9669 58.8695C48.6745 58.8695 49.2482 58.2959 49.2482 57.5882C49.2482 56.8806 48.6745 56.3069 47.9669 56.3069C47.2592 56.3069 46.6855 56.8806 46.6855 57.5882C46.6855 58.2959 47.2592 58.8695 47.9669 58.8695Z" fill="white"/>
<path d="M115.915 70.9575H85.0645V90.3431H115.915V70.9575Z" fill="#254C50"/>
<path opacity="0.2" d="M73.1982 70.9575H42.3477V90.3431H73.1982V70.9575Z" fill="#5A5773"/>
<path opacity="0.2" d="M158.63 70.9575H127.779V90.3431H158.63V70.9575Z" fill="#5A5773"/>
<path opacity="0.2" d="M73.1982 98.6716H42.3477V118.057H73.1982V98.6716Z" fill="#5A5773"/>
<path opacity="0.2" d="M115.915 98.6716H85.0645V118.057H115.915V98.6716Z" fill="#5A5773"/>
<path opacity="0.2" d="M158.63 98.6716H127.779V118.057H158.63V98.6716Z" fill="#5A5773"/>
<path opacity="0.2" d="M73.1982 126.384H42.3477V145.77H73.1982V126.384Z" fill="#5A5773"/>
<path opacity="0.2" d="M115.915 126.384H85.0645V145.77H115.915V126.384Z" fill="#5A5773"/>
<path opacity="0.2" d="M158.63 126.384H127.779V145.77H158.63V126.384Z" fill="#5A5773"/>
<path d="M108.352 87.9379L106.223 88.6909L105.45 87.4096C104.859 86.424 104.039 85.0756 103.434 84.0959C102.365 82.373 103.763 79.7472 103.763 79.7472C103.763 79.7472 104.015 77.1116 104.914 76.2995C105.813 75.4873 106.063 79.7472 106.063 79.7472C109.673 81.3874 107.739 85.2452 107.739 85.2452L108.09 86.7749L108.352 87.9379Z" fill="#EFB7B9"/>
<path opacity="0.1" d="M108.353 87.9379L106.224 88.6909L105.451 87.4096V87.2972C105.451 87.2972 106.671 86.4594 108.095 86.7748L108.353 87.9379Z" fill="black"/>
<path d="M104.916 96.5721L105.982 95.6693L105.448 87.5437C105.448 87.5437 108.208 85.6552 110.25 88.6101C110.25 88.6101 110.168 90.4158 110.25 90.9087C110.333 91.4015 109.677 91.8943 110.25 92.3851C110.824 92.876 110.25 94.52 110.25 94.52C110.25 94.52 110.899 95.6693 111.309 95.9965C111.719 96.3238 112.131 99.0343 111.309 99.6079C110.487 100.182 108.945 101.496 108.945 102.07C108.945 102.644 106.974 104.041 106.974 104.041L105.243 101.753L104.916 96.5721Z" fill="#FF6484"/>
<path d="M81.85 145.897C77.872 144.21 78.7551 140.088 79.5042 138.012C79.6539 137.592 79.8297 137.181 80.0305 136.782L82.262 135.428C82.262 135.428 82.7174 136.589 83.2043 138.146C84.3339 141.77 85.6329 147.504 81.85 145.897Z" fill="#EFB7B9"/>
<path d="M87.3194 183.507C87.0501 184.032 86.8513 184.59 86.7281 185.167C86.5311 186.095 86.4451 187.044 86.4718 187.992C86.4876 188.649 86.5428 189.078 86.5428 189.078L82.1113 192.126C82.1113 192.126 82.137 191.769 82.1803 191.245C82.2947 189.849 82.5332 187.259 82.7579 186.924C82.9136 186.691 83.0221 185.757 83.0911 184.889C83.16 184.022 83.1876 183.261 83.1876 183.261C83.1876 183.261 88.52 181.262 87.3194 183.507Z" fill="#EFB7B9"/>
<path d="M97.7836 185.694C97.7836 185.694 97.7836 186.541 97.7521 187.527C97.7206 188.513 97.6614 189.676 97.5372 190.218C97.4229 190.714 97.415 191.627 97.4367 192.469C97.4663 193.455 97.5372 194.342 97.5372 194.342C97.5372 194.342 93.0131 190.064 93.4744 189.725C93.5986 189.634 93.7208 189.27 93.8332 188.785C93.9712 188.193 94.0954 187.405 94.188 186.734C94.2984 185.936 94.3674 185.293 94.3674 185.293L97.7836 185.694Z" fill="#EFB7B9"/>
<path opacity="0.1" d="M87.3181 183.507C87.0488 184.032 86.85 184.59 86.7268 185.167C85.5138 185.135 84.3032 185.043 83.0996 184.889C83.1666 184.042 83.1962 183.261 83.1962 183.261C83.1962 183.261 88.5187 181.262 87.3181 183.507Z" fill="black"/>
<path opacity="0.1" d="M97.7851 185.694C97.7851 185.694 97.7851 186.541 97.7535 187.527C96.3421 187.888 94.8912 187.166 94.1895 186.738C94.2998 185.94 94.3688 185.297 94.3688 185.297L97.7851 185.694Z" fill="black"/>
<path d="M107.048 143.765C105.242 147.707 104.503 152.383 104.503 152.383L103.847 156.326C103.847 156.326 104.176 158.048 103.847 158.705C103.518 159.361 102.861 160.43 102.861 160.43C102.861 160.43 103.354 164.451 102.861 164.861C102.368 165.271 102.861 167.733 102.861 167.733L101.219 176.013L98.9206 186.681C96.7049 188.489 93.7558 186.19 93.7558 186.19L94.4063 179.214C94.4063 179.214 95.392 166.992 94.982 166.491C94.5719 165.991 95.1456 164.439 95.1456 164.439C95.1456 164.439 95.7212 162.961 95.3112 162.387C94.9011 161.814 95.392 160.582 95.392 160.582C95.392 160.582 95.2284 155.574 95.7212 154.425C96.214 153.276 95.7212 146.168 95.7212 146.168L95.5241 143.954L95.4097 142.728L95.3999 142.607C95.3999 142.607 95.325 143.098 95.2027 143.859C94.84 146.175 94.0673 150.975 93.7617 151.963C93.554 152.675 93.2719 153.363 92.92 154.015C92.92 154.015 93.3458 156.477 92.92 157.134C92.4942 157.79 92.8549 158.529 92.8549 158.529C92.8549 158.529 93.265 160.582 92.0329 161.402C90.8009 162.222 92.0329 162.634 92.0329 162.634C92.0329 162.634 91.1301 164.605 90.8028 165.423C90.4756 166.241 90.8028 167.394 90.8028 167.394L90.1464 174.041C90.1464 174.041 89.5708 176.831 89.6536 178.719C89.7364 180.608 88.9144 184.956 88.9144 184.956C88.9144 184.956 82.5944 184.956 81.6206 184.217C80.6468 183.478 83.2469 176.267 83.2469 176.267C83.2469 176.267 83.9862 163.627 83.8206 163.3C83.655 162.973 83.8206 160.509 84.3962 160.018C84.9718 159.527 84.3962 158.539 84.3962 158.539C84.3962 158.539 84.2326 156.568 84.3962 156.077C84.5598 155.586 84.3706 153.942 84.3706 153.942C84.3706 153.942 83.8206 149.921 83.7398 147.622C83.6589 145.324 83.2469 140.155 83.2469 140.155C83.2469 140.155 83.6767 136.958 83.7417 135.436C83.7654 134.876 84.0157 134.176 84.3331 133.518C84.6883 132.774 85.0968 132.058 85.5553 131.373C85.5553 131.373 105.002 125.625 105.818 126.196C106.035 126.348 106.35 127.379 106.662 128.872C107.529 133.041 108.377 140.867 107.048 143.765Z" fill="#444053"/>
<path d="M95.0658 93.6014C98.1937 93.6014 100.729 91.0658 100.729 87.9379C100.729 84.81 98.1937 82.2744 95.0658 82.2744C91.938 82.2744 89.4023 84.81 89.4023 87.9379C89.4023 91.0658 91.938 93.6014 95.0658 93.6014Z" fill="#A1616A"/>
<path opacity="0.1" d="M106.661 128.875C106.008 129.211 105.571 129.441 105.571 129.441C105.571 129.441 96.3785 133.792 93.7646 133.545C91.7421 133.348 86.5793 133.461 84.3301 133.516C84.6853 132.772 85.0938 132.056 85.5523 131.371C85.5523 131.371 105.001 125.625 105.817 126.196C106.034 126.352 106.349 127.379 106.661 128.875Z" fill="black"/>
<path d="M91.126 96.9823C91.126 96.9823 85.8804 97.8102 84.6424 98.6224C83.4045 99.4345 80.9522 101.004 80.9522 104.369C80.9522 107.734 80.3786 111.181 80.0494 112.165C79.7202 113.149 85.22 121.111 85.22 121.111L83.2487 133.177C83.2487 133.177 91.1339 132.931 93.7596 133.177C96.3854 133.423 105.574 129.073 105.574 129.073C105.574 129.073 110.991 126.201 112.14 126.116C113.289 126.031 109.841 119.796 109.841 119.796C109.841 119.796 104.505 109.703 105.408 108.061C106.311 106.419 106.973 104.039 106.973 104.039L105.987 95.6694C105.987 95.6694 104.511 95.1766 103.279 96.0794C102.047 96.9823 97.8619 96.4894 97.8619 96.4894L91.126 96.9823Z" fill="#FF6484"/>
<path opacity="0.1" d="M82.22 111.591L80.162 112.165L79.5923 119.888C79.5923 119.888 80.3315 121.94 79.5923 122.597C78.8531 123.253 78.6895 137.289 78.6895 137.289C78.6895 137.289 81.0708 139.012 83.8601 137.699C83.8601 137.699 83.4501 136.14 84.6821 130.476C85.9142 124.813 85.9122 121.94 85.9122 121.94C85.9122 121.94 85.9122 114.881 86.4878 113.732C87.0634 112.583 86.4878 109.711 86.4878 109.711C86.4878 109.711 85.3386 108.151 85.4194 107.578C85.5002 107.004 82.22 111.591 82.22 111.591Z" fill="black"/>
<path opacity="0.1" d="M83.204 138.152C81.9954 138.559 80.6799 138.512 79.5039 138.018C79.6536 137.598 79.8294 137.187 80.0302 136.788L82.2617 135.434C82.2617 135.434 82.725 136.595 83.204 138.152Z" fill="black"/>
<path d="M82.0969 111.591L80.0448 112.165L79.4712 119.888C79.4712 119.888 80.2104 121.94 79.4712 122.597C78.732 123.253 78.5684 137.289 78.5684 137.289C78.5684 137.289 80.9516 139.01 83.739 137.691C83.739 137.691 83.329 136.132 84.5591 130.468C85.7892 124.805 85.7911 121.933 85.7911 121.933C85.7911 121.933 85.7911 114.873 86.3648 113.724C86.9384 112.575 86.3648 109.703 86.3648 109.703C86.3648 109.703 85.2155 108.143 85.2983 107.57C85.3811 106.996 82.0969 111.591 82.0969 111.591Z" fill="#FF6484"/>
<path opacity="0.1" d="M103.109 112.822C103.109 112.822 102.042 122.014 98.9219 123.738C98.9219 123.738 105.898 121.769 103.109 112.822Z" fill="black"/>
<path opacity="0.1" d="M87.4336 113.644C87.4336 113.644 91.2894 115.53 90.3905 116.843C89.4916 118.156 87.4336 113.644 87.4336 113.644Z" fill="black"/>
<path opacity="0.1" d="M87.4336 117.418C87.4336 117.418 89.8957 119.963 89.4049 120.866C88.914 121.769 87.4336 117.418 87.4336 117.418Z" fill="black"/>
<path opacity="0.1" d="M107.295 96.3257C107.295 96.3257 108.261 97.9658 108.353 99.0342C108.446 100.103 107.295 96.3257 107.295 96.3257Z" fill="black"/>
<path opacity="0.1" d="M107.295 94.1101C107.295 94.1101 107.78 93.6981 109.018 94.1101C110.256 94.5221 107.295 94.1101 107.295 94.1101Z" fill="black"/>
<path opacity="0.1" d="M102.556 142.081C100.523 142.37 98.4488 142.104 96.5536 141.312L95.5186 143.962L95.4043 142.736C95.5738 141.707 95.903 140.605 96.5536 140.327C96.5536 140.327 98.8324 142.142 102.556 142.081Z" fill="black"/>
<path opacity="0.1" d="M85.7188 145.529C85.7188 145.529 90.7672 146.576 92.1826 146.39L85.7188 145.529Z" fill="black"/>
<path opacity="0.1" d="M86.2441 146.852C86.2441 146.852 88.3988 146.759 89.4751 147.191L86.2441 146.852Z" fill="black"/>
<path opacity="0.1" d="M86.4883 147.745C87.4714 147.953 88.4692 148.085 89.4728 148.139L86.4883 147.745Z" fill="black"/>
<path opacity="0.1" d="M86.3652 159.04C86.4579 158.979 90.6745 157.993 91.1988 158.701L86.3652 159.04Z" fill="black"/>
<path opacity="0.1" d="M86.3652 160.333C86.3652 160.333 90.0279 159.902 90.1205 160.333C90.2132 160.765 86.3652 160.333 86.3652 160.333Z" fill="black"/>
<path opacity="0.1" d="M86.3652 161.502C86.3652 161.502 90.2743 160.694 90.7356 160.891C91.1968 161.088 86.3652 161.502 86.3652 161.502Z" fill="black"/>
<path opacity="0.1" d="M86.5506 189.08L82.1191 192.128C82.1191 192.128 82.1448 191.771 82.1881 191.247C83.1738 188.822 84.4571 187.543 84.4571 187.543C85.4565 187.283 86.0873 187.523 86.4796 187.994C86.4954 188.649 86.5506 189.08 86.5506 189.08Z" fill="black"/>
<path d="M86.9818 191.818C86.3555 193.247 86.0404 194.793 86.0572 196.352C86.0822 197.631 85.7578 198.893 85.1189 200.001C85.0265 200.157 84.9223 200.306 84.8074 200.447C84.8074 200.447 81.7283 200.421 80.65 199.528C80.5288 199.432 80.43 199.311 80.3602 199.173C79.7432 197.943 81.5607 193.234 81.5607 193.234C82.5148 189.603 84.4526 187.663 84.4526 187.663C87.9043 186.77 86.9818 191.818 86.9818 191.818Z" fill="#444053"/>
<path opacity="0.1" d="M85.1193 199.991C85.0269 200.148 84.9227 200.297 84.8078 200.437C84.8078 200.437 81.7287 200.411 80.6504 199.518C81.1807 197.764 82.872 192.455 83.6645 193.358C84.4096 194.206 84.9281 198.284 85.1193 199.991Z" fill="black"/>
<path d="M84.6973 193.687L84.4824 201.639H85.5154C85.5154 201.639 85.6829 194.663 86.1442 193.687C86.6055 192.712 84.6973 193.687 84.6973 193.687Z" fill="#444053"/>
<path opacity="0.1" d="M97.5372 194.342C97.5372 194.342 93.0131 190.064 93.4744 189.725C93.5986 189.634 93.7208 189.27 93.8332 188.785C94.7025 188.633 96.1987 188.996 97.4367 192.469C97.4663 193.455 97.5372 194.342 97.5372 194.342Z" fill="black"/>
<path d="M98.2129 199.112C98.1782 199.127 98.1417 199.138 98.1044 199.144C97.5722 199.236 95.6108 199.183 94.5128 199.144C94.3116 199.137 94.1209 199.053 93.9808 198.908C93.8406 198.764 93.7621 198.57 93.7617 198.369C93.7617 198.073 93.7617 197.713 93.7381 197.328C93.6868 196.114 93.5409 194.669 93.1053 194.344C92.3345 193.752 91.7254 191.746 93.1053 189.205C93.1053 189.205 95.7507 187.184 97.6589 193.258C97.6589 193.258 97.8442 194.99 98.6741 195.605C99.5041 196.22 98.5835 198.937 98.2129 199.112Z" fill="#444053"/>
<path opacity="0.1" d="M98.1008 199.144C97.5685 199.237 95.6071 199.183 94.5091 199.144C94.3079 199.137 94.1172 199.053 93.9771 198.908C93.837 198.764 93.7584 198.57 93.758 198.369C93.758 198.073 93.758 197.713 93.7344 197.328C94.0675 195.858 94.5465 194.344 95.1636 193.999C95.1675 193.997 97.0343 193.786 98.1008 199.144Z" fill="black"/>
<path d="M93.4414 193.819L93.9382 200.437H94.569V193.256L93.4414 193.819Z" fill="#444053"/>
<path opacity="0.1" d="M94.9823 78.9134C93.1941 79.0465 91.4631 79.6026 89.9319 80.5358C89.5377 80.7743 89.1434 81.0641 88.9798 81.4919C88.8379 81.8625 88.897 82.2804 88.9029 82.6746C88.9561 86.0692 85.1713 88.6377 85.2896 92.0303C85.3369 93.3767 86.013 94.6304 86.1372 95.9729C86.3442 98.2123 85.0195 100.272 83.75 102.127C85.0579 102.207 86.3462 101.78 87.3476 100.935C88.6871 105.4 88.8602 110.133 87.8503 114.684H89.6658C89.8451 114.671 90.0252 114.693 90.1961 114.749C90.3554 114.825 90.4981 114.932 90.616 115.063C92.3132 116.752 93.4507 119.25 92.8021 121.556L96.6658 120.107C97.5904 119.76 98.5287 119.407 99.333 118.836C100.137 118.264 100.811 117.434 100.981 116.46C101.085 115.869 101.052 115.163 101.539 114.82C101.779 114.693 102.035 114.598 102.3 114.538C103.36 114.164 103.829 112.938 104.046 111.834C104.31 110.479 104.393 109.096 104.293 107.72C104.121 105.413 103.439 103.071 104.001 100.82C104.318 99.5567 105.024 98.3798 105.081 97.0748C105.174 94.9242 103.492 93.0712 103.242 90.9323C103.067 89.442 103.605 87.934 103.429 86.4437C103.332 85.6745 103.05 84.9401 102.609 84.3029C102.167 83.6656 101.578 83.1443 100.892 82.783C100.417 82.5386 99.9066 82.375 99.4374 82.1049C98.367 81.484 97.683 80.3663 96.7112 79.5975C95.7393 78.8287 94.1209 78.5389 93.3896 79.5383L94.9823 78.9134Z" fill="black"/>
<path d="M94.9824 78.6671C93.1941 78.8002 91.4631 79.3563 89.9319 80.2895C89.5377 80.528 89.1434 80.8178 88.9798 81.2456C88.8379 81.6162 88.897 82.0341 88.9029 82.4283C88.9561 85.8229 85.1713 88.3914 85.2896 91.786C85.3369 93.1304 86.013 94.3841 86.1372 95.7286C86.3442 97.9679 85.0195 100.028 83.75 101.885C85.0575 101.962 86.3448 101.535 87.3476 100.692C88.6869 105.156 88.86 109.888 87.8503 114.438H89.6658C89.8452 114.426 90.0254 114.448 90.1961 114.505C90.3557 114.579 90.4986 114.685 90.616 114.816C92.3132 116.508 93.4507 119.003 92.8021 121.31L96.6658 119.861C97.5904 119.514 98.5287 119.161 99.333 118.589C100.137 118.018 100.811 117.188 100.981 116.214C101.085 115.623 101.052 114.917 101.539 114.574C101.779 114.446 102.035 114.352 102.3 114.292C103.36 113.918 103.829 112.691 104.046 111.588C104.313 110.232 104.398 108.847 104.299 107.469C104.127 105.163 103.445 102.821 104.007 100.57C104.324 99.3064 105.03 98.1296 105.087 96.8246C105.18 94.6739 103.498 92.8209 103.248 90.6821C103.072 89.1918 103.611 87.6857 103.435 86.1935C103.337 85.4244 103.056 84.6901 102.614 84.0529C102.173 83.4157 101.584 82.8943 100.898 82.5328C100.423 82.2884 99.9125 82.1247 99.4434 81.8567C98.373 81.2337 97.6889 80.116 96.7171 79.3472C95.7452 78.5784 94.1268 78.2886 93.3955 79.2881L94.9824 78.6671Z" fill="#925978"/>
<g opacity="0.1">
<path opacity="0.1" d="M88.9005 81.6082C88.8926 81.6841 88.8886 81.7604 88.8887 81.8368C88.8946 81.7619 88.8985 81.685 88.9005 81.6082Z" fill="black"/>
<path opacity="0.1" d="M103.228 89.4991C103.299 88.4543 103.531 87.4056 103.445 86.3647C103.38 87.4095 103.147 88.4582 103.228 89.4991Z" fill="black"/>
<path opacity="0.1" d="M86.1389 94.6934C86.0246 93.4712 85.4549 92.3279 85.3208 91.1077C85.2941 91.3313 85.2842 91.5567 85.2913 91.7818C85.3386 93.1125 85.999 94.3563 86.133 95.681C86.1656 95.3527 86.1676 95.0221 86.1389 94.6934Z" fill="black"/>
<path opacity="0.1" d="M104.018 99.5488C103.833 100.351 103.767 101.176 103.821 101.997C103.84 101.518 103.907 101.042 104.018 100.576C104.335 99.3122 105.041 98.1354 105.098 96.8304C105.108 96.5986 105.097 96.3664 105.067 96.1365C104.913 97.3094 104.3 98.4015 104.018 99.5488Z" fill="black"/>
<path opacity="0.1" d="M87.3495 99.6553C86.5273 100.344 85.5097 100.758 84.4399 100.838C84.2152 101.189 83.9826 101.532 83.752 101.871C85.0595 101.948 86.3468 101.521 87.3495 100.678C88.0697 103.075 88.4557 105.559 88.4968 108.061C88.5553 105.216 88.1682 102.38 87.3495 99.6553Z" fill="black"/>
<path opacity="0.1" d="M104.055 110.555C103.838 111.658 103.369 112.885 102.308 113.257C102.043 113.316 101.787 113.412 101.547 113.541C101.06 113.884 101.094 114.594 100.989 115.181C100.82 116.155 100.148 116.983 99.3414 117.547C98.5351 118.11 97.5988 118.473 96.6743 118.82L92.988 120.2C92.9688 120.57 92.9093 120.937 92.8105 121.294L96.6743 119.845C97.5988 119.498 98.5371 119.145 99.3414 118.574C100.146 118.002 100.82 117.172 100.989 116.198C101.094 115.607 101.06 114.901 101.547 114.558C101.787 114.431 102.043 114.336 102.308 114.276C103.369 113.902 103.838 112.676 104.055 111.572C104.279 110.423 104.372 109.252 104.333 108.083C104.307 108.913 104.214 109.739 104.055 110.555Z" fill="black"/>
<path opacity="0.1" d="M90.6231 113.777C90.5058 113.646 90.3629 113.539 90.2032 113.464C90.0323 113.408 89.8523 113.385 89.6729 113.397H88.0624C87.9993 113.74 87.9323 114.083 87.8652 114.424H89.6808C89.8602 114.412 90.0404 114.434 90.2111 114.491C90.3707 114.565 90.5136 114.671 90.6309 114.803C91.8728 116.041 92.8131 117.708 92.9748 119.419C93.1739 117.373 92.1133 115.268 90.6231 113.777Z" fill="black"/>
</g>
<path opacity="0.1" d="M81.6172 120.496C81.6172 120.496 83.0838 119.88 83.4111 120.496C83.7383 121.111 81.6172 120.496 81.6172 120.496Z" fill="black"/>
<path opacity="0.1" d="M82.1348 121.55C82.1348 121.55 83.6014 120.935 83.9306 121.55C84.2598 122.165 82.1348 121.55 82.1348 121.55Z" fill="black"/>
<path opacity="0.1" d="M173.036 41.9599C173.036 41.9599 165.535 41.5085 166.42 46.7639C166.42 46.7639 166.245 47.6924 167.087 48.1142C167.087 48.1142 167.1 47.72 167.855 47.856C168.124 47.9012 168.398 47.9145 168.669 47.8954C169.037 47.87 169.386 47.7253 169.663 47.4834C169.663 47.4834 171.77 46.6141 172.59 43.1683C172.59 43.1683 173.198 42.4153 173.182 42.2221L171.916 42.7642C171.916 42.7642 172.348 43.6769 172.007 44.4358C172.007 44.4358 171.967 42.7957 171.723 42.8351C171.674 42.8351 171.067 43.1506 171.067 43.1506C171.067 43.1506 171.81 44.7414 171.248 45.8985C171.248 45.8985 171.461 43.9391 170.834 43.2669L169.939 43.7971C169.939 43.7971 170.808 45.4392 170.219 46.7797C170.219 46.7797 170.371 44.7236 169.752 43.9233L168.943 44.5521C168.943 44.5521 169.762 46.1627 169.269 47.2745C169.269 47.2745 169.204 44.8794 168.774 44.7C168.774 44.7 168.068 45.3229 167.962 45.5792C167.962 45.5792 168.52 46.7619 168.173 47.373C168.173 47.373 167.96 45.7802 167.778 45.7724C167.778 45.7724 167.075 46.829 167.002 47.5465C167.036 46.877 167.245 46.228 167.607 45.6639C167.201 45.7408 166.827 45.9355 166.531 46.2238C166.531 46.2238 166.639 45.4767 167.78 45.4096C167.78 45.4096 168.362 44.6093 168.518 44.56C168.518 44.56 167.382 44.4654 166.694 44.7709C166.694 44.7709 167.299 44.0652 168.727 44.3767L169.515 43.7262C169.515 43.7262 168.021 43.529 167.386 43.7478C167.386 43.7478 168.116 43.1249 169.73 43.5783L170.597 43.0599C170.597 43.0599 169.324 42.7839 168.565 42.8844C168.565 42.8844 169.365 42.4527 170.852 42.9199L171.473 42.642C171.473 42.642 170.538 42.4586 170.266 42.4291C169.994 42.3995 169.978 42.3246 169.978 42.3246C170.57 42.2262 171.176 42.2945 171.731 42.5217C171.731 42.5217 173.058 42.0427 173.036 41.9599Z" fill="#254C50"/>
<path opacity="0.1" d="M162.347 37.698C162.347 37.698 156.039 41.7805 159.865 45.4885C159.865 45.4885 160.273 46.3401 161.201 46.1824C161.201 46.1824 160.981 45.8591 161.669 45.5181C161.912 45.3953 162.141 45.2437 162.349 45.0666C162.63 44.8284 162.825 44.5053 162.906 44.1461C162.906 44.1461 164.089 42.1945 162.709 38.934C162.709 38.934 162.753 37.9681 162.619 37.8261L161.921 39.0089C161.921 39.0089 162.81 39.4879 162.985 40.3001C162.985 40.3001 161.982 39.005 161.803 39.1804C161.767 39.2159 161.46 39.825 161.46 39.825C161.46 39.825 163.003 40.6648 163.234 41.9284C163.234 41.9284 162.248 40.2232 161.339 40.0556L160.929 41.0019C160.929 41.0019 162.605 41.8101 162.924 43.2393C162.924 43.2393 161.826 41.4927 160.854 41.2148L160.578 42.2004C160.578 42.2004 162.195 43.0205 162.453 44.2111C162.453 44.2111 160.983 42.3226 160.529 42.437C160.529 42.437 160.332 43.3556 160.395 43.6197C160.395 43.6197 161.542 44.2348 161.629 44.9405C161.629 44.9405 160.513 43.7833 160.369 43.8799C160.369 43.8799 160.429 45.1475 160.797 45.7743C160.429 45.2146 160.213 44.5684 160.17 43.8996C159.889 44.202 159.702 44.5804 159.634 44.9878C159.634 44.9878 159.279 44.3215 160.16 43.5921C160.16 43.5921 160.16 42.6065 160.249 42.4705C160.249 42.4705 159.279 43.0619 158.905 43.7203C158.905 43.7203 158.976 42.7938 160.314 42.2063L160.571 41.2108C160.571 41.2108 159.246 41.9323 158.869 42.4902C158.869 42.4902 159.088 41.5558 160.655 40.9644L161.05 40.032C161.05 40.032 159.867 40.5662 159.307 41.0965C159.307 41.0965 159.701 40.2725 161.172 39.7698L161.507 39.1784C161.507 39.1784 160.645 39.5845 160.409 39.7225C160.172 39.8605 160.115 39.8092 160.115 39.8092C160.533 39.3795 161.062 39.0744 161.643 38.9281C161.643 38.9281 162.414 37.7532 162.347 37.698Z" fill="#254C50"/>
<path opacity="0.1" d="M152.746 42.4548C152.746 42.4548 148.975 48.96 154.067 50.5232C154.067 50.5232 154.818 51.0968 155.573 50.5232C155.573 50.5232 155.232 50.3379 155.689 49.7209C155.848 49.5007 155.981 49.2625 156.084 49.0112C156.226 48.6713 156.254 48.2943 156.164 47.9369C156.164 47.9369 156.332 45.662 153.622 43.3813C153.622 43.3813 153.227 42.5021 153.03 42.437L152.945 43.8169C152.945 43.8169 153.955 43.8406 154.481 44.4852C154.481 44.4852 152.999 43.7854 152.924 44.02C152.908 44.0673 152.91 44.7493 152.91 44.7493C152.91 44.7493 154.682 44.8025 155.471 45.8237C155.471 45.8237 153.815 44.7533 152.934 45.0135L152.997 46.0425C152.997 46.0425 154.856 46.0031 155.788 47.1326C155.788 47.1326 154.014 46.074 153.028 46.2672L153.225 47.2706C153.225 47.2706 155.039 47.2706 155.808 48.2129C155.808 48.2129 153.639 47.1957 153.286 47.4973C153.286 47.4973 153.525 48.408 153.706 48.6189C153.706 48.6189 155.007 48.6465 155.406 49.236C155.406 49.236 153.886 48.7096 153.801 48.8634C153.801 48.8634 154.43 49.9653 155.043 50.3556C154.461 50.0259 153.975 49.5503 153.633 48.9757C153.52 49.3727 153.525 49.7942 153.649 50.1881C153.649 50.1881 153.03 49.7564 153.484 48.7057C153.484 48.7057 153.03 47.8265 153.056 47.6668C153.056 47.6668 152.464 48.6387 152.425 49.3897C152.425 49.3897 152.066 48.5322 152.993 47.4027L152.77 46.3973C152.77 46.3973 151.916 47.6412 151.834 48.3095C151.834 48.3095 151.605 47.377 152.734 46.141L152.66 45.1337C152.66 45.1337 151.843 46.1489 151.591 46.8724C151.591 46.8724 151.563 45.9617 152.65 44.8439L152.679 44.1639C152.679 44.1639 152.088 44.9149 151.948 45.1495C151.808 45.3841 151.725 45.3506 151.725 45.3506C151.903 44.7777 152.236 44.2652 152.687 43.8701C152.687 43.8701 152.829 42.4725 152.746 42.4548Z" fill="#254C50"/>
<path d="M185.123 116.61C184.565 116.61 184.02 116.776 183.556 117.086C183.092 117.396 182.73 117.836 182.517 118.352C182.303 118.867 182.247 119.434 182.356 119.982C182.465 120.529 182.734 121.031 183.128 121.426C183.523 121.82 184.025 122.089 184.572 122.198C185.12 122.307 185.687 122.251 186.202 122.037C186.718 121.824 187.158 121.462 187.468 120.998C187.778 120.535 187.944 119.989 187.944 119.431C187.942 118.684 187.644 117.967 187.115 117.439C186.587 116.91 185.87 116.612 185.123 116.61ZM176.875 94.4749V97.2958H179.696L184.774 107.582L182.651 111.038C182.419 111.446 182.298 111.908 182.298 112.378C182.298 114.267 183.589 115.199 185.34 115.199H201.833V112.486H185.685C185.638 112.489 185.59 112.482 185.546 112.465C185.502 112.449 185.462 112.423 185.429 112.389C185.395 112.356 185.369 112.316 185.353 112.272C185.336 112.228 185.329 112.181 185.332 112.134C185.369 112.012 185.419 111.894 185.482 111.783L186.891 109.557H197.4C197.908 109.561 198.407 109.425 198.842 109.164C199.278 108.903 199.633 108.527 199.868 108.077L204.948 99.3419C205.047 99.1201 205.096 98.8791 205.09 98.6362C205.088 98.4547 205.05 98.2754 204.977 98.109C204.905 97.9426 204.799 97.7925 204.668 97.6675C204.536 97.5425 204.381 97.4451 204.211 97.3813C204.041 97.3174 203.86 97.2884 203.678 97.2958H182.801L181.46 94.4749H176.875ZM199.01 116.61C198.453 116.611 197.907 116.777 197.444 117.087C196.98 117.397 196.619 117.838 196.406 118.353C196.193 118.869 196.137 119.436 196.246 119.983C196.355 120.53 196.624 121.032 197.018 121.427C197.413 121.821 197.916 122.089 198.463 122.198C199.01 122.307 199.577 122.251 200.092 122.037C200.608 121.824 201.048 121.462 201.358 120.998C201.668 120.534 201.833 119.989 201.833 119.431C201.831 118.683 201.533 117.967 201.004 117.438C200.475 116.91 199.758 116.612 199.01 116.61Z" fill="#254C50"/>
<path d="M195.4 102.279H193.034V99.9136H191.26V102.279H188.895V104.053H191.26V106.419H193.034V104.053H195.4V102.279Z" fill="white"/>
<defs>
<linearGradient id="paint0_linear" x1="130.692" y1="152.659" x2="130.692" y2="54.8364" gradientUnits="userSpaceOnUse">
<stop stop-color="#808080" stop-opacity="0.25"/>
<stop offset="0.54" stop-color="#808080" stop-opacity="0.12"/>
<stop offset="1" stop-color="#808080" stop-opacity="0.1"/>
</linearGradient>
</defs>
</svg>
